<svg width="30" height="30" viewBox="0 0 30 30" fill="none" xmlns="http://www.w3.org/2000/svg">
<path opacity="0.3" fill-rule="evenodd" clip-rule="evenodd" d="M14.9999 0C6.71587 0 0 6.71568 0 14.9997C0 23.2847 6.71587 30 14.9999 30C23.2843 30 29.9998 23.2847 29.9998 14.9997C29.9998 6.71621 23.2847 0.000715925 14.9997 0.000715925L14.9999 0ZM6.44609 11.5626C11.0618 10.1617 19.0372 10.4258 23.8724 13.2972C24.5369 13.6931 25.4004 13.4733 25.7945 12.8066C26.1896 12.1408 25.9709 11.2798 25.3042 10.8841C19.7383 7.57993 10.9302 7.26916 5.63165 8.87764C4.88992 9.10297 4.47186 9.88626 4.69647 10.6278C4.92109 11.369 5.70491 11.7874 6.44609 11.5626ZM23.7147 17.5502C23.3755 18.1006 22.6558 18.2733 22.1061 17.9353C18.075 15.4574 11.9282 14.7396 7.15918 16.1873C6.54068 16.3741 5.88744 16.0255 5.69972 15.4081C5.51344 14.7896 5.86219 14.1376 6.4796 13.9496C11.9271 12.2967 18.6992 13.0973 23.3294 15.9426C23.8793 16.2812 24.0531 17.0012 23.7145 17.5504L23.7147 17.5502ZM20.5932 21.945C21.0337 22.2143 21.6094 22.0758 21.8788 21.6339L21.8786 21.6343C22.1491 21.1937 22.0093 20.6187 21.5687 20.3482C17.615 17.9323 12.7138 17.37 6.99994 18.6763C6.49554 18.7909 6.18155 19.2925 6.29673 19.7956C6.41135 20.2986 6.91289 20.614 7.41603 20.4987C12.6373 19.3059 17.0709 19.7922 20.5932 21.945Z" fill="white"/>
</svg>
