<svg width="30" height="30" viewBox="0 0 30 30" fill="none" xmlns="http://www.w3.org/2000/svg">
<g opacity="0.3">
<path d="M6.06947 2.89309C8.29001 1.24434 10.9145 0.247658 13.6498 0V4.53549C11.8817 4.76518 10.193 5.44352 8.74857 6.51603C6.93991 7.85895 5.60984 9.74877 4.95454 11.9068C4.29926 14.0647 4.35343 16.3766 5.10908 18.5014C5.86474 20.6262 7.28188 22.4515 9.15145 23.7078C11.021 24.9641 13.244 25.5852 15.4927 25.4794C17.7413 25.3734 19.8963 24.5462 21.6402 23.1198C23.3838 21.6932 24.6239 19.7428 25.1775 17.5565C25.5636 16.0314 25.6013 14.4478 25.2989 12.921L29.0998 9.85916L29.0972 9.83447C30.1233 12.6626 30.28 15.7393 29.5394 18.6652C28.7486 21.7887 26.9771 24.5748 24.486 26.6127C21.9949 28.6505 18.9162 29.8322 15.7039 29.9834C12.4916 30.1347 9.31583 29.2475 6.645 27.4526C3.97418 25.6579 1.9497 23.0505 0.870203 20.015C-0.209306 16.9797 -0.286701 13.677 0.64943 10.5942C1.58556 7.51131 3.48565 4.81156 6.06947 2.89309Z" fill="white"/>
<path d="M26.4545 4.79535L26.4704 4.83527L23.9346 8.87416C23.0123 7.50375 21.7766 6.36308 20.3303 5.5557V14.7469C20.3303 17.5669 18.0507 19.8529 15.2386 19.8529C12.4265 19.8529 10.1469 17.5669 10.1469 14.7469C10.1469 11.927 12.4265 9.64092 15.2386 9.64092C16.2925 9.64092 17.2716 9.96202 18.084 10.512V0C21.3898 0.637619 24.3088 2.36526 26.4545 4.79535Z" fill="white"/>
</g>
</svg>
