<svg width="30" height="30" viewBox="0 0 30 30" fill="none" xmlns="http://www.w3.org/2000/svg">
<g opacity="0.3">
<path fill-rule="evenodd" clip-rule="evenodd" d="M14.9998 30C6.74982 30 -0.000183105 23.3001 -0.000183105 15.0001C-0.000183105 6.70021 6.74982 -0.0497227 14.9998 0.000276566C23.2498 0.000276566 29.9998 6.70021 29.9998 15.0001C29.9998 23.2501 23.2998 30 14.9998 30ZM8.19197 19.3181C9.42012 20.3357 10.9741 20.8569 12.5532 20.8569C14.1824 20.8569 15.8115 20.3109 17.0146 19.2189C17.8064 18.5437 18.6561 17.6393 18.8863 17.3943C18.9184 17.3601 18.9385 17.3388 18.9446 17.3327C19.5712 16.6378 19.5461 15.5706 18.8443 14.9501C18.1425 14.3297 17.0648 14.3545 16.4382 15.0494C16.4382 15.0494 15.5108 16.0421 14.7588 16.7122C13.4806 17.829 11.4503 17.6553 10.4227 16.7619C9.6457 16.0918 9.16948 15.1983 9.11935 14.2552C9.06922 13.3618 9.37 12.4931 9.9966 11.823C11.2115 10.4813 13.4716 8.34182 13.7932 8.03736C13.8166 8.01518 13.8298 8.00274 13.8315 8.00105C14.5082 7.35578 14.5333 6.2886 13.8816 5.61851C13.2299 4.94842 12.1521 4.9236 11.4754 5.56887C11.3501 5.66814 8.8687 8.05069 7.4651 9.56459C6.21188 10.9296 5.61033 12.6669 5.71059 14.4786C5.83591 16.34 6.71316 18.0524 8.19197 19.3181ZM18.952 24.6008C19.502 24.073 21.5934 22.066 22.8296 20.7328C24.0828 19.3926 24.7094 17.6553 24.5841 15.8188C24.4588 13.9574 23.5815 12.245 22.1027 10.9792C19.6715 8.8945 15.6862 8.94414 13.28 11.0785C12.4882 11.7536 11.6385 12.6581 11.4084 12.9031C11.3763 12.9373 11.3562 12.9586 11.3501 12.9647C10.7235 13.6596 10.7485 14.7268 11.4503 15.3472C12.1521 15.9677 13.2299 15.9429 13.8565 15.248C13.8565 15.248 14.7839 14.2552 15.5358 13.5851C16.8141 12.4683 18.8443 12.6669 19.872 13.5355C20.649 14.2056 21.1252 15.099 21.1753 16.0421C21.2255 16.9356 20.9247 17.8042 20.2981 18.4743C19.0832 19.816 16.8231 21.9555 16.5015 22.26C16.4781 22.2822 16.4649 22.2946 16.4632 22.2963C15.7865 22.9416 15.7614 24.0088 16.4131 24.6789C16.7389 25.0263 17.1901 25.2 17.6413 25.2C18.0673 25.2 18.4934 25.0263 18.8193 24.7285C18.8312 24.7166 18.8775 24.6723 18.952 24.6008Z" fill="white"/>
</g>
</svg>
