<svg width="46" height="30" viewBox="0 0 46 30" fill="none" xmlns="http://www.w3.org/2000/svg">
<g opacity="0.3">
<path fill-rule="evenodd" clip-rule="evenodd" d="M36.0532 0H45.9998V5.81467H36.0532V0Z" fill="white"/>
<path fill-rule="evenodd" clip-rule="evenodd" d="M36.0532 8.06178H45.9998V13.8764H36.0532V8.06178Z" fill="white"/>
<path fill-rule="evenodd" clip-rule="evenodd" d="M36.0532 16.1236H45.9998V21.9382H36.0532V16.1236Z" fill="white"/>
<path fill-rule="evenodd" clip-rule="evenodd" d="M-0.000183105 24.1853H9.94639V30H-0.000183105V24.1853Z" fill="white"/>
<path fill-rule="evenodd" clip-rule="evenodd" d="M12.0099 24.1853H21.9565V30H12.0099V24.1853Z" fill="white"/>
<path fill-rule="evenodd" clip-rule="evenodd" d="M24.0432 24.1853H33.9897V30H24.0432V24.1853Z" fill="white"/>
<path fill-rule="evenodd" clip-rule="evenodd" d="M36.0532 24.1853H45.9998V30H36.0532V24.1853Z" fill="white"/>
<path fill-rule="evenodd" clip-rule="evenodd" d="M24.0432 16.1236H33.9897V21.9382H24.0432V16.1236Z" fill="white"/>
<path fill-rule="evenodd" clip-rule="evenodd" d="M12.0099 16.1236H21.9565V21.9382H12.0099V16.1236Z" fill="white"/>
<path fill-rule="evenodd" clip-rule="evenodd" d="M12.0099 8.06178H21.9565V13.8764H12.0099V8.06178Z" fill="white"/>
</g>
</svg>
