<svg width="413" height="390" viewBox="0 0 413 390" fill="none" xmlns="http://www.w3.org/2000/svg">
<path opacity="0.2" fill-rule="evenodd" clip-rule="evenodd" d="M75.8887 1.78705C79.5594 2.78132 82.4486 5.68487 83.4238 9.36798C85.2 16.0504 85.2 30 85.2 30C85.2 30 85.2 43.9496 83.4238 50.632C82.4355 54.325 79.5495 57.2319 75.8887 58.2129C69.2467 60 42.6 60 42.6 60C42.6 60 15.9664 60 9.31126 58.2129C5.6406 57.2187 2.75135 54.3151 1.77623 50.632C0 43.9496 0 30 0 30C0 30 0 16.0504 1.77623 9.36798C2.76449 5.67496 5.65045 2.76811 9.31126 1.78705C15.9664 -1.96888e-06 42.6 0 42.6 0C42.6 0 69.2467 -1.96888e-06 75.8887 1.78705ZM55.2 29.4L33.6 42V16.8L55.2 29.4Z" fill="white"/>
<path opacity="0.2" d="M124.567 54.721C122.92 53.59 121.74 51.8429 121.048 49.4603C120.357 47.0776 120 43.9159 120 39.959V34.5776C120 30.5815 120.399 27.3775 121.196 24.9557C121.994 22.5339 123.242 20.7705 124.927 19.6688C126.613 18.5639 128.832 18 131.579 18C134.287 18 136.451 18.5639 138.085 19.6949C139.719 20.826 140.912 22.5893 141.671 24.9818C142.427 27.3775 142.8 30.5782 142.8 34.5613V39.9427C142.8 43.8996 142.427 47.0744 141.697 49.4701C140.967 51.8658 139.77 53.6291 138.111 54.7308C136.464 55.8358 134.219 56.3997 131.392 56.3997C128.497 56.416 126.214 55.8521 124.567 54.721ZM133.82 48.9094C134.271 47.6969 134.512 45.7217 134.512 42.9903V31.4322C134.512 28.7692 134.287 26.8299 133.82 25.5913C133.37 24.3657 132.559 23.7464 131.405 23.7464C130.289 23.7464 129.507 24.3657 129.041 25.5913C128.591 26.8168 128.349 28.766 128.349 31.4322V42.9903C128.349 45.7347 128.562 47.7132 128.999 48.9094C129.436 50.1219 130.234 50.7249 131.389 50.7249C132.559 50.7249 133.357 50.1187 133.82 48.9094Z" fill="white"/>
<path opacity="0.2" d="M254.409 40.0557V41.929C254.409 44.3147 254.479 46.0934 254.63 47.2912C254.768 48.4759 255.073 49.3538 255.529 49.8923C255.986 50.4308 256.694 50.7147 257.65 50.7147C258.938 50.7147 259.824 50.2285 260.294 49.2592C260.764 48.2899 261.029 46.6711 261.069 44.4094L268.481 44.8271C268.522 45.1502 268.538 45.5941 268.538 46.162C268.538 49.5986 267.569 52.1573 265.643 53.8544C263.717 55.5515 260.989 56.4 257.455 56.4C253.217 56.4 250.251 55.1076 248.55 52.5195C246.846 49.9315 246 45.9433 246 40.5289V34.0473C246 28.4698 246.886 24.4131 248.644 21.8413C250.402 19.2826 253.422 18 257.704 18C260.653 18 262.911 18.5254 264.492 19.5763C266.072 20.6272 267.179 22.2591 267.83 24.4816C268.468 26.7041 268.8 29.7752 268.8 33.6851V40.0459H254.409V40.0557ZM255.503 24.4294C255.073 24.9548 254.781 25.8164 254.63 27.0011C254.479 28.1858 254.409 30.0069 254.409 32.4188V35.0852H260.697V32.4188C260.697 30.033 260.613 28.2283 260.448 27.0011C260.281 25.774 259.979 24.8993 259.549 24.4C259.12 23.9007 258.442 23.6461 257.526 23.6461C256.61 23.633 255.932 23.9039 255.503 24.4294Z" fill="white"/>
<path opacity="0.2" d="M104.395 39.677L94.8 4.81655H103.171L106.528 20.6119C107.384 24.5111 108.009 27.8206 108.417 30.5669H108.661C108.947 28.5991 109.573 25.3028 110.55 20.6649L114.03 4.79999H122.4L112.696 39.6737V56.4H104.395V39.677Z" fill="white"/>
<path opacity="0.2" d="M170.4 18V55.7821H163.819L163.086 51.1611H162.909C161.117 54.6592 158.431 56.4 154.862 56.4C152.38 56.4 150.545 55.5761 149.365 53.9317C148.185 52.2873 147.6 49.7226 147.6 46.2245V18H156.012V45.7427C156.012 47.4304 156.19 48.6363 156.554 49.3505C156.919 50.0648 157.531 50.4335 158.385 50.4335C159.118 50.4335 159.825 50.2143 160.489 49.7625C161.153 49.3107 161.656 48.7326 161.982 48.035V18H170.4Z" fill="white"/>
<path opacity="0.2" d="M213.6 18V55.7821H207.019L206.286 51.1611H206.109C204.317 54.6592 201.631 56.4 198.061 56.4C195.58 56.4 193.745 55.5761 192.565 53.9317C191.385 52.2873 190.8 49.7226 190.8 46.2245V18H199.212V45.7427C199.212 47.4304 199.389 48.6363 199.754 49.3505C200.119 50.0648 200.731 50.4335 201.585 50.4335C202.318 50.4335 203.025 50.2143 203.689 49.7625C204.353 49.3107 204.856 48.7326 205.182 48.035V18H213.6Z" fill="white"/>
<path opacity="0.2" d="M194.4 11.6278H185.959V56.4H177.641V11.6278H169.2V4.79999H194.387V11.6278H194.4Z" fill="white"/>
<path opacity="0.2" d="M242.835 24.2119C242.309 21.8347 241.478 20.1131 240.318 19.047C239.155 17.9809 237.562 17.4478 235.531 17.4478C233.952 17.4478 232.487 17.8849 231.116 18.7722C229.744 19.6462 228.695 20.8084 227.948 22.2453H227.877V2.40002H219.6V55.8537H226.687L227.559 52.2879H227.74C228.403 53.5593 229.399 54.5559 230.73 55.2942C232.058 56.0325 233.526 56.4 235.145 56.4C238.052 56.4 240.184 55.0757 241.552 52.4369C242.923 49.7982 243.6 45.6729 243.6 40.0543V34.0948C243.61 29.8834 243.348 26.5891 242.835 24.2119ZM234.961 39.5743C234.961 42.3223 234.85 44.4677 234.615 46.0271C234.394 47.5865 234.005 48.6924 233.466 49.3479C232.926 50.0035 232.205 50.3312 231.293 50.3312C230.586 50.3312 229.935 50.1657 229.329 49.8379C228.732 49.5101 228.236 49.0168 227.86 48.3613V26.9699C228.152 25.9435 228.648 25.1125 229.356 24.4536C230.063 23.7981 230.824 23.4703 231.652 23.4703C232.524 23.4703 233.201 23.8113 233.673 24.4801C234.143 25.1489 234.475 26.2978 234.669 27.8837C234.85 29.4828 234.947 31.7507 234.947 34.704V39.571L234.961 39.5743Z" fill="white"/>
<path opacity="0.2" d="M291.064 4.79999H279.6V56.3476H287.051V14.4826L295.266 56.3476H302.143L310.739 13.5294V56.4H318V4.79999H306.156L298.8 45.571L291.064 4.79999Z" fill="white"/>
<path opacity="0.2" d="M340.708 55.9155H346.8V18H338.544V47.9381C337.167 50.231 332.256 52.14 332.256 47.5576C332.256 42.9752 332.256 18.0033 332.256 18.0033H324C324 18.0033 324 42.2109 324 48.7057C324 55.2004 333.042 60.9309 339.33 51.1888L340.708 55.9155Z" fill="white"/>
<path opacity="0.2" d="M385.2 18H378V56.4H385.2V18Z" fill="white"/>
<path opacity="0.2" d="M381.6 14.4C378.96 14.4 376.8 12.2353 376.8 9.58836V8.41159C376.8 5.7647 378.96 3.59998 381.6 3.59998C384.241 3.59998 386.4 5.7647 386.4 8.41159V9.58836C386.397 12.2353 384.241 14.4 381.6 14.4Z" fill="white"/>
<path opacity="0.2" d="M365.849 30.845H372.486C372.68 27.657 372.875 18 362.531 18C353.943 18 351.6 23.4074 351.6 28.2375C351.6 33.0677 354.074 36.478 361.099 41.8887C367.086 44.9805 367.344 52.0632 362.4 52.0632C360.057 52.0632 358.626 50.5173 358.626 48.3278C358.626 46.1383 358.626 44.8512 358.626 44.8512H351.6C351.6 44.8512 351.6 47.8136 351.6 48.842C351.6 52.3187 353.943 57.6 362.139 57.6C370.337 57.6 373.2 53.0916 373.2 46.1383C373.2 39.185 358.368 32.3578 358.368 27.594C358.368 22.0572 365.752 22.6676 365.752 26.6916L365.849 30.845Z" fill="white"/>
<path opacity="0.2" d="M399.253 26.8003C398.486 35.6301 399.124 42.3794 399.381 46.6639C399.73 52.4968 405.771 52.5069 405.771 46.5334C405.771 42.5099 405.771 42.249 405.771 42.249H412.8C412.8 50.0386 410.117 56.4 402.574 56.4C393.755 56.4 391.2 50.0386 391.2 43.2858C391.2 36.5331 391.2 31.9911 391.2 31.9911C391.2 22.9039 395.035 16.8 402.318 16.8C412.03 16.8 412.286 23.8103 412.286 27.0579C412.286 30.3021 412.286 31.3423 412.286 31.3423L405.768 31.8607C405.768 31.8607 405.768 30.3021 405.768 26.6665C405.771 23.0343 401.297 19.7901 399.253 26.8003Z" fill="white"/>
<path opacity="0.2" fill-rule="evenodd" clip-rule="evenodd" d="M102.944 331.786C106.668 332.782 109.596 335.686 110.586 339.368C112.4 346.05 112.4 360 112.4 360C112.4 360 112.4 373.95 110.599 380.632C109.596 384.327 106.668 387.232 102.957 388.214C96.2223 390 69.2 390 69.2 390C69.2 390 42.1777 390 35.4427 388.214C31.7178 387.218 28.7902 384.314 27.8006 380.632C26 373.95 26 360 26 360C26 360 26 346.05 27.8006 339.368C28.8039 335.673 31.7316 332.768 35.4427 331.786C42.1777 330 69.2 330 69.2 330C69.2 330 96.2086 330 102.944 331.786ZM83.6 359.4L60.8 372V346.8L83.6 359.4Z" fill="white"/>
<path opacity="0.2" d="M325.336 386.386L319.715 364.075C318.965 364.129 318.16 364.198 317.286 364.198H316.356V386.4H308V334.8H318.924C329.597 334.8 332.901 339.602 332.901 348.876V350.162C332.901 355.703 330.777 359.629 326.919 361.9L328.543 366.51L334.4 386.373H325.336V386.386ZM317.785 358.603C322.532 358.603 324.212 355.771 324.212 350.299V349.068C324.212 343.049 322.713 341.079 317.91 341.079H316.356V358.603H317.785Z" fill="white"/>
<path opacity="0.2" d="M344.013 370.051V371.924C344.013 378.461 344.387 380.712 347.256 380.712C350.001 380.712 350.624 378.65 350.68 374.418L358.095 374.836C358.649 382.828 354.353 386.4 347.062 386.4C338.22 386.4 335.6 380.766 335.6 370.522V364.053C335.6 353.27 338.524 348 347.312 348C356.155 348 358.4 352.488 358.4 363.689V370.051H344.013ZM344.013 362.408V365.077H350.306V362.408C350.306 355.561 349.807 353.62 347.132 353.62C344.457 353.62 344.013 355.629 344.013 362.408Z" fill="white"/>
<path opacity="0.2" d="M377.737 332.4V351.379C376.284 348.921 373.529 347.487 370.457 347.487C364.671 347.487 362 352.58 362 363.817V369.77C362 382.167 364.048 386.4 370.083 386.4C373.751 386.4 376.99 383.888 378.166 380.447H378.291L379.343 385.786H386V332.4H377.737ZM377.737 376.774C377.114 378.986 375.564 380.392 373.945 380.215C371.398 380.215 370.651 377.757 370.651 369.169V364.308C370.651 356.144 371.578 353.563 374.318 353.563C375.689 353.563 376.99 354.178 377.737 355.529V376.774Z" fill="white"/>
<path opacity="0.2" d="M150.808 383.518C149.075 382.388 147.831 380.639 147.104 378.257C146.377 375.876 146 372.714 146 368.758V363.376C146 359.38 146.419 356.178 147.258 353.756C148.097 351.334 149.411 349.572 151.186 348.468C152.961 347.365 155.295 346.8 158.189 346.8C161.04 346.8 163.319 347.365 165.038 348.495C166.757 349.625 168.015 351.388 168.812 353.783C169.609 356.178 170 359.38 170 363.363V368.745C170 372.7 169.609 375.876 168.84 378.271C168.071 380.666 166.813 382.428 165.066 383.531C163.333 384.635 160.97 385.2 157.993 385.2C154.946 385.213 152.542 384.648 150.808 383.518ZM160.537 377.719C161.012 376.508 161.264 374.53 161.264 371.799V360.241C161.264 357.577 161.026 355.64 160.537 354.402C160.062 353.178 159.209 352.559 157.993 352.559C156.819 352.559 155.994 353.178 155.505 354.402C155.03 355.626 154.778 357.577 154.778 360.241V371.799C154.778 374.544 155.002 376.521 155.463 377.719C155.924 378.93 156.763 379.535 157.979 379.535C159.209 379.522 160.062 378.916 160.537 377.719Z" fill="white"/>
<path opacity="0.2" d="M282.808 370.056V371.929C282.808 374.314 282.877 376.093 283.03 377.292C283.168 378.477 283.473 379.353 283.93 379.892C284.387 380.431 285.094 380.714 286.049 380.714C287.338 380.714 288.224 380.229 288.695 379.259C289.166 378.289 289.429 376.672 289.471 374.408L296.881 374.826C296.923 375.149 296.937 375.594 296.937 376.16C296.937 379.596 295.967 382.156 294.042 383.853C292.116 385.551 289.388 386.4 285.855 386.4C281.617 386.4 278.652 385.107 276.949 382.52C275.245 379.933 274.4 375.944 274.4 370.528V364.047C274.4 358.469 275.287 354.413 277.046 351.84C278.805 349.28 281.825 348 286.105 348C289.055 348 291.313 348.525 292.892 349.576C294.471 350.627 295.579 352.258 296.23 354.481C296.868 356.704 297.2 359.776 297.2 363.683V370.043L282.808 370.056ZM283.902 354.427C283.473 354.952 283.182 355.815 283.03 357C282.877 358.186 282.808 360.005 282.808 362.417V365.085H289.097V362.417C289.097 360.032 289.014 358.227 288.847 357C288.681 355.774 288.376 354.899 287.947 354.4C287.518 353.901 286.839 353.645 285.925 353.645C285.01 353.645 284.332 353.901 283.902 354.427Z" fill="white"/>
<path opacity="0.2" d="M130.394 369.683L120.8 334.814H129.171L132.528 350.614C133.384 354.513 134.009 357.823 134.417 360.573H134.661C134.947 358.603 135.572 355.306 136.55 350.668L140.029 334.8H148.4L138.684 369.67V386.4H130.381V369.683H130.394Z" fill="white"/>
<path opacity="0.2" d="M197.6 348V385.783H191.018L190.285 381.161H190.109C188.317 384.658 185.63 386.4 182.061 386.4C179.577 386.4 177.745 385.577 176.564 383.931C175.384 382.286 174.8 379.721 174.8 376.224V348H183.214V375.744C183.214 377.431 183.391 378.638 183.757 379.351C184.124 380.064 184.734 380.434 185.589 380.434C186.322 380.434 187.028 380.215 187.693 379.762C188.358 379.31 188.86 378.734 189.186 378.034V348H197.6Z" fill="white"/>
<path opacity="0.2" d="M240.8 348V385.783H234.218L233.485 381.161H233.309C231.517 384.658 228.83 386.4 225.261 386.4C222.777 386.4 220.945 385.577 219.764 383.931C218.584 382.286 218 379.721 218 376.224V348H226.414V375.744C226.414 377.431 226.591 378.638 226.957 379.351C227.324 380.064 227.934 380.434 228.789 380.434C229.522 380.434 230.228 380.215 230.893 379.762C231.558 379.31 232.06 378.734 232.386 378.034V348H240.8Z" fill="white"/>
<path opacity="0.2" d="M220.4 341.628H211.959V386.4H203.641V341.628H195.2V334.8H220.386V341.628H220.4Z" fill="white"/>
<path opacity="0.2" d="M270.038 354.213C269.512 351.835 268.682 350.113 267.519 349.047C266.357 347.981 264.765 347.448 262.731 347.448C261.153 347.448 259.686 347.885 258.315 348.774C256.945 349.648 255.893 350.81 255.146 352.245H255.077V332.4H246.8V385.853H253.886L254.758 382.286H254.938C255.603 383.557 256.599 384.555 257.928 385.293C259.257 386.031 260.724 386.4 262.343 386.4C265.249 386.4 267.381 385.074 268.751 382.436C270.121 379.799 270.8 375.671 270.8 370.054V364.095C270.813 359.885 270.55 356.591 270.038 354.213ZM262.163 369.575C262.163 372.323 262.052 374.468 261.817 376.026C261.596 377.585 261.208 378.692 260.668 379.348C260.128 380.004 259.409 380.332 258.495 380.332C257.789 380.332 257.139 380.168 256.53 379.84C255.935 379.512 255.437 379.02 255.063 378.364V356.974C255.354 355.949 255.852 355.115 256.558 354.459C257.264 353.803 258.025 353.475 258.855 353.475C259.727 353.475 260.405 353.817 260.876 354.487C261.346 355.156 261.679 356.304 261.872 357.89C262.052 359.489 262.149 361.758 262.149 364.71L262.163 369.575Z" fill="white"/>
</svg>
