<svg width="300" height="72" viewBox="0 0 300 72" fill="none" xmlns="http://www.w3.org/2000/svg">
<path d="M125.352 71.2764V22.4322H124.991L105.465 71.2764H97.8716L78.3457 22.4322H77.9841V71.2764H68.9444V5.06533H80.5153L101.487 57.8895H101.849L122.821 5.06533H134.754V71.2764H125.352ZM185.738 71.2764H176.336V62.9548H175.975C173.444 68.7437 168.381 72 161.15 72C150.664 72 144.517 65.1256 144.517 53.9096V22.794H154.28V52.1005C154.28 59.3367 157.895 63.3166 164.404 63.3166C171.636 63.3166 175.613 58.2513 175.613 50.6533V22.794H185.376L185.738 71.2764ZM212.495 22.0704C223.705 22.0704 230.575 28.2211 230.936 37.2663H221.897C221.174 32.5628 217.919 29.6683 212.495 29.6683C207.072 29.6683 203.456 32.201 203.456 36.1809C203.456 39.0754 205.625 41.2462 210.687 42.3317L218.281 44.1407C228.044 46.3116 231.66 50.2915 231.66 57.1658C231.66 65.8493 223.705 72 212.495 72C200.563 72 193.331 66.2111 192.608 56.804H202.371C203.094 61.8694 206.71 64.402 212.495 64.402C218.281 64.402 221.897 61.8694 221.897 57.8895C221.897 54.6332 220.089 52.8241 215.027 51.7387L207.433 49.9297C198.393 47.7588 194.054 43.4171 194.054 36.1809C194.054 27.8593 201.286 22.0704 212.495 22.0704ZM238.891 10.1307C238.891 6.87437 241.423 4.34171 244.677 4.34171C247.931 4.34171 250.462 6.87437 250.462 10.1307C250.462 13.3869 247.931 15.9196 244.677 15.9196C241.423 15.9196 238.891 13.3869 238.891 10.1307ZM239.615 22.794H249.377V71.2764H239.615V22.794ZM290.599 39.4372C289.514 34.3719 285.898 30.0302 279.389 30.0302C271.796 30.0302 266.734 36.5427 266.734 46.6734C266.734 57.1658 271.796 63.3166 279.389 63.3166C285.536 63.3166 289.152 60.0603 290.599 54.2714H300C298.915 64.402 290.96 71.6382 279.389 71.6382C265.649 71.6382 256.971 62.2312 256.971 46.6734C256.971 31.4774 265.649 21.7085 279.389 21.7085C291.683 21.7085 298.915 29.6683 300 39.0754L290.599 39.4372ZM38.9325 11.5779C36.4014 14.4724 32.4239 17.005 28.4464 16.6432C27.7232 12.3015 29.8928 7.9598 32.0623 5.42714C34.5934 2.17085 38.9325 0 42.5484 0C42.91 3.9799 41.4636 8.32161 38.9325 11.5779ZM42.5484 17.3668C44.7179 17.3668 51.2265 18.0905 55.5656 24.603C55.204 24.9648 47.9722 29.3065 47.9722 38.3518C47.9722 49.206 57.3736 52.8241 57.3736 52.8241C57.3736 53.1859 55.9272 57.8895 52.6729 62.9548C49.7802 67.2965 46.5259 71.6382 41.8252 71.6382C37.1245 71.6382 35.6782 68.7437 30.2544 68.7437C24.8305 68.7437 23.0226 71.6382 18.6835 71.6382C13.9828 71.6382 10.3669 66.9347 7.47422 62.593C1.3272 53.5477 -3.37346 37.2663 3.13515 26.4121C6.02786 20.9849 11.8133 17.3668 17.5987 17.3668C22.2994 17.3668 26.6385 20.6231 29.1696 20.6231C31.7007 20.6231 36.763 17.005 42.5484 17.3668Z" fill="black"/>
</svg>
