<svg width="450" height="105" viewBox="0 0 450 105" fill="none" xmlns="http://www.w3.org/2000/svg">
<path fill-rule="evenodd" clip-rule="evenodd" d="M1.86362 1.61011C0.680193 2.87869 0 4.83121 0 7.36837V97.6143C0 100.151 0.680193 102.104 1.90786 103.328L2.2286 103.599L52.9278 53.0319V51.8957L2.18436 1.33984L1.86362 1.61011Z" fill="url(#paint0_linear_8_236)"/>
<path fill-rule="evenodd" clip-rule="evenodd" d="M69.7943 69.9537L52.8835 53.0815V51.9012L69.7999 35.029L70.1649 35.2552L90.1725 46.5952C95.9016 49.8163 95.9016 55.1223 90.1725 58.3875L70.1649 69.7275C70.1593 69.7275 69.7943 69.9537 69.7943 69.9537Z" fill="url(#paint1_linear_8_236)"/>
<path fill-rule="evenodd" clip-rule="evenodd" d="M70.1594 69.7276L52.8836 52.4914L1.86365 103.378C3.72726 105.375 6.86279 105.601 10.3688 103.648L70.1594 69.7276Z" fill="url(#paint2_linear_8_236)"/>
<path fill-rule="evenodd" clip-rule="evenodd" d="M70.1594 35.2607L10.3688 1.38396C6.86832 -0.612683 3.72726 -0.34242 1.86365 1.65422L52.8781 52.4913L70.1594 35.2607Z" fill="url(#paint3_linear_8_236)"/>
<path opacity="0.2" fill-rule="evenodd" clip-rule="evenodd" d="M69.7943 69.3635L10.4129 103.014C7.09487 104.917 4.13631 104.785 2.22846 103.058L1.90771 103.378L2.22846 103.648C4.13631 105.369 7.09487 105.507 10.4129 103.604L70.2035 69.7276L69.7943 69.3635Z" fill="black"/>
<path opacity="0.12" fill-rule="evenodd" clip-rule="evenodd" d="M90.1671 57.7974L69.7502 69.3635L70.1152 69.7276L90.1228 58.3875C92.9874 56.7549 94.3975 54.6259 94.3975 52.4914C94.2151 54.4439 92.7607 56.3026 90.1671 57.7974Z" fill="black"/>
<path opacity="0.25" fill-rule="evenodd" clip-rule="evenodd" d="M10.3688 1.97412L90.167 47.1909C92.7606 48.6415 94.215 50.5443 94.4417 52.4968C94.4417 50.3678 93.0316 48.2333 90.167 46.6007L10.3688 1.38395C4.63969 -1.88127 0 0.837912 0 7.36836V7.95853C0 1.42808 4.63969 -1.24698 10.3688 1.97412Z" fill="white"/>
<path fill-rule="evenodd" clip-rule="evenodd" d="M113.918 49.6287C113.918 35.1724 126.101 23.4021 140.595 23.4021C148.608 23.4021 154.31 26.5405 158.612 30.6275L153.547 35.6798C150.472 32.8007 146.302 30.5669 140.59 30.5669C130.005 30.5669 121.732 39.0664 121.732 49.6232C121.732 60.18 130.005 68.6906 140.584 68.6906C147.447 68.6906 151.351 65.9438 153.856 63.4397C155.908 61.3935 157.252 58.4537 157.771 54.4218H140.595V47.2736H164.772C165.027 48.5532 165.16 50.0865 165.16 51.7467C165.16 57.1134 163.683 63.7707 158.933 68.5086C154.31 73.3071 148.415 75.8663 140.59 75.8663C126.09 75.8663 113.907 64.1071 113.907 49.6398L113.918 49.6287ZM184.703 42.0834C175.34 42.0834 167.698 49.1875 167.698 58.9666C167.698 68.6961 175.335 75.8498 184.703 75.8498C194.071 75.8498 201.696 68.6851 201.696 58.9611C201.696 49.182 194.065 42.0779 184.703 42.0834ZM184.703 69.209C179.576 69.209 175.147 64.9896 175.147 58.9721C175.147 52.8939 179.571 48.7352 184.703 48.7352C189.829 48.7352 194.253 52.8884 194.253 58.9721C194.253 64.9841 189.835 69.209 184.703 69.209ZM221.781 42.0834C212.419 42.0834 204.788 49.1875 204.788 58.9666C204.788 68.6961 212.419 75.8498 221.781 75.8498C231.144 75.8498 238.775 68.6851 238.775 58.9611C238.775 49.182 231.149 42.0779 221.781 42.0834ZM221.781 69.209C216.655 69.209 212.226 64.9896 212.226 58.9721C212.226 52.8939 216.65 48.7352 221.781 48.7352C226.908 48.7352 231.337 52.8884 231.337 58.9721C231.337 64.9841 226.908 69.209 221.781 69.209ZM267.288 43.1093V45.8561H267.034C265.369 43.8649 262.162 42.0779 258.125 42.0779C249.658 42.0779 241.889 49.5019 241.889 59.0383C241.889 68.4975 249.653 75.8608 258.125 75.8608C262.162 75.8608 265.369 74.0738 267.034 72.0275H267.288V74.4544C267.288 80.9131 263.826 84.3714 258.246 84.3714C253.69 84.3714 250.869 81.1062 249.714 78.3649L243.232 81.051C245.09 85.5241 250.034 91.0287 258.241 91.0287C266.956 91.0287 274.333 85.9047 274.333 73.434V43.1038L267.288 43.1093ZM258.761 69.209C253.634 69.209 249.327 64.9179 249.327 59.0383C249.327 53.0925 253.629 48.7407 258.761 48.7407C263.826 48.7407 267.802 53.087 267.802 59.0383C267.808 64.9179 263.832 69.209 258.761 69.209ZM279.471 25.1947H286.914V74.8349H279.471V25.1947ZM307.314 69.209C303.532 69.209 300.833 67.4771 299.113 64.0961L321.753 54.7472L320.973 52.8278C319.569 49.0606 315.266 42.0834 306.479 42.0834C297.758 42.0834 290.509 48.9282 290.509 58.9721C290.509 68.4313 297.692 75.8553 307.314 75.8553C315.078 75.8553 319.569 71.1285 321.427 68.3707L315.654 64.5373C313.724 67.3558 311.091 69.2146 307.314 69.209ZM306.734 48.6083C309.681 48.6083 312.181 50.081 313.016 52.188L297.875 58.4592C297.687 51.9342 302.946 48.6083 306.734 48.6083Z" fill="#808285"/>
<path fill-rule="evenodd" clip-rule="evenodd" d="M354.414 25.1947H336.618V74.835H344.045V56.0324H354.419C362.653 56.0324 370.749 50.0866 370.749 40.6108C370.749 31.1516 362.659 25.2002 354.43 25.2002L354.414 25.1947ZM354.607 49.1213H344.045V32.1002H354.607C360.159 32.1002 363.322 36.6947 363.322 40.6108C363.322 44.4607 360.159 49.1213 354.607 49.1213ZM382.268 74.835V25.1947H374.841V74.835H382.268ZM415.631 74.7467V55.718C415.631 46.9041 409.028 41.9897 400.506 41.9897C395.137 41.9897 389.568 44.3559 387.262 49.5902L393.854 52.3314C395.264 49.5902 397.885 48.6911 400.644 48.6911C404.482 48.6911 408.387 50.9911 408.447 55.0837V55.5966C407.104 54.83 404.228 53.6772 400.7 53.6772C393.594 53.6772 386.36 57.5712 386.36 64.8518C386.36 71.498 392.189 75.7726 398.72 75.7726C403.719 75.7726 406.468 73.5388 408.193 70.9244H408.447V74.7578H415.625L415.631 74.7467ZM399.621 69.198C397.188 69.198 393.793 67.9846 393.793 64.9897C393.793 61.1563 398.023 59.6782 401.673 59.6782C404.941 59.6782 406.473 60.3786 408.464 61.3383C407.894 65.7949 404.117 69.1429 399.621 69.198ZM441.749 43.0763L433.233 64.5925H432.979L424.142 43.0763H416.14L429.39 73.1582L421.83 89.887H429.578L450 43.0763H441.749Z" fill="#808285"/>
<defs>
<linearGradient id="paint0_linear_8_236" x1="48.3753" y1="6.39832" x2="-32.8079" y2="28.0863" gradientUnits="userSpaceOnUse">
<stop stop-color="#00A0FF"/>
<stop offset="0.007" stop-color="#00A1FF"/>
<stop offset="0.26" stop-color="#00BEFF"/>
<stop offset="0.512" stop-color="#00D2FF"/>
<stop offset="0.76" stop-color="#00DFFF"/>
<stop offset="1" stop-color="#00E3FF"/>
</linearGradient>
<linearGradient id="paint1_linear_8_236" x1="97.6276" y1="52.4938" x2="-1.39245" y2="52.4938" gradientUnits="userSpaceOnUse">
<stop stop-color="#FFE000"/>
<stop offset="0.409" stop-color="#FFBD00"/>
<stop offset="0.775" stop-color="#FFA500"/>
<stop offset="1" stop-color="#FF9C00"/>
</linearGradient>
<linearGradient id="paint2_linear_8_236" x1="60.7654" y1="61.868" x2="-4.17985" y2="171.461" gradientUnits="userSpaceOnUse">
<stop stop-color="#FF3A44"/>
<stop offset="1" stop-color="#C31162"/>
</linearGradient>
<linearGradient id="paint3_linear_8_236" x1="-10.9793" y1="-28.4101" x2="17.9946" y2="20.5358" gradientUnits="userSpaceOnUse">
<stop stop-color="#32A071"/>
<stop offset="0.069" stop-color="#2DA771"/>
<stop offset="0.476" stop-color="#15CF74"/>
<stop offset="0.801" stop-color="#06E775"/>
<stop offset="1" stop-color="#00F076"/>
</linearGradient>
</defs>
</svg>
