<svg width="360" height="60" viewBox="0 0 360 60" fill="none" xmlns="http://www.w3.org/2000/svg">
<path opacity="0.2" fill-rule="evenodd" clip-rule="evenodd" d="M76.9436 1.78636C80.6684 2.78182 83.5961 5.68636 84.5857 9.36818C86.4 16.05 86.4 30 86.4 30C86.4 30 86.4 43.95 84.5994 50.6318C83.5961 54.3273 80.6684 57.2318 76.9573 58.2136C70.2223 60 43.2 60 43.2 60C43.2 60 16.1777 60 9.4427 58.2136C5.71785 57.2182 2.7902 54.3136 1.80057 50.6318C0 43.95 0 30 0 30C0 30 0 16.05 1.80057 9.36818C2.80395 5.67273 5.73159 2.76818 9.4427 1.78636C16.1777 0 43.2 0 43.2 0C43.2 0 70.2086 0 76.9436 1.78636ZM57.6 29.4L34.8 42V16.8L57.6 29.4Z" fill="white"/>
<path opacity="0.2" d="M299.336 56.3863L293.715 34.0746C292.965 34.1294 292.16 34.1978 291.286 34.1978H290.356V56.4H282V4.79999H292.924C303.597 4.79999 306.901 9.60158 306.901 18.8764V20.1623C306.901 25.7026 304.777 29.6287 300.919 31.8996L302.543 36.5096L308.4 56.3726H299.336V56.3863ZM291.785 28.6027C296.532 28.6027 298.212 25.771 298.212 20.2991V19.068C298.212 13.0489 296.713 11.079 291.91 11.079H290.356V28.6027H291.785Z" fill="white"/>
<path opacity="0.2" d="M318.013 40.0507V41.9242C318.013 48.4612 318.387 50.7121 321.256 50.7121C324.001 50.7121 324.624 48.6499 324.68 44.4177L332.095 44.8355C332.649 52.8282 328.353 56.4 321.062 56.4C312.22 56.4 309.6 50.766 309.6 40.5224V34.0528C309.6 23.2701 312.524 18 321.312 18C330.155 18 332.4 22.4883 332.4 33.6889V40.0507H318.013ZM318.013 32.4084V35.0772H324.306V32.4084C324.306 25.5614 323.807 23.6205 321.132 23.6205C318.457 23.6205 318.013 25.6288 318.013 32.4084Z" fill="white"/>
<path opacity="0.2" d="M351.737 2.40002V21.3785C350.284 18.9209 347.529 17.4873 344.457 17.4873C338.671 17.4873 336 22.58 336 33.817V39.7699C336 52.1674 338.048 56.4 344.083 56.4C347.751 56.4 350.99 53.8878 352.166 50.4471H352.291L353.343 55.7856H360V2.40002H351.737ZM351.737 46.7742C351.114 48.9861 349.564 50.3924 347.945 50.2149C345.398 50.2149 344.651 47.7573 344.651 39.1692V34.3085C344.651 26.1436 345.578 23.5631 348.318 23.5631C349.689 23.5631 350.99 24.1775 351.737 25.5292V46.7742Z" fill="white"/>
<path opacity="0.2" d="M124.808 53.5179C123.075 52.3877 121.831 50.6386 121.104 48.2571C120.377 45.8756 120 42.7138 120 38.7581V33.3762C120 29.3802 120.419 26.1779 121.258 23.7561C122.097 21.3342 123.411 19.5717 125.186 18.4684C126.961 17.3651 129.295 16.8 132.189 16.8C135.04 16.8 137.319 17.3651 139.038 18.4953C140.757 19.6255 142.015 21.388 142.812 23.783C143.609 26.1779 144 29.3801 144 33.3627V38.7446C144 42.7003 143.609 45.8756 142.84 48.2706C142.071 50.6655 140.813 52.4281 139.066 53.5314C137.333 54.6347 134.97 55.1998 131.993 55.1998C128.946 55.2132 126.542 54.6481 124.808 53.5179ZM134.537 47.7189C135.012 46.508 135.264 44.5302 135.264 41.7989V30.2413C135.264 27.5772 135.026 25.6397 134.537 24.4019C134.062 23.1775 133.209 22.5586 131.993 22.5586C130.819 22.5586 129.994 23.1775 129.505 24.4019C129.03 25.6263 128.778 27.5772 128.778 30.2413V41.7989C128.778 44.5436 129.002 46.5215 129.463 47.7189C129.924 48.9299 130.763 49.5353 131.979 49.5353C133.209 49.5219 134.062 48.9164 134.537 47.7189Z" fill="white"/>
<path opacity="0.2" d="M256.808 40.0564V41.9293C256.808 44.3141 256.877 46.0926 257.03 47.2918C257.168 48.4775 257.473 49.3533 257.93 49.8922C258.387 50.4312 259.094 50.7141 260.049 50.7141C261.338 50.7141 262.224 50.2291 262.695 49.2589C263.166 48.2888 263.429 46.672 263.471 44.4084L270.881 44.8261C270.923 45.1495 270.937 45.5941 270.937 46.16C270.937 49.5958 269.967 52.1558 268.042 53.8535C266.116 55.5512 263.388 56.4 259.855 56.4C255.617 56.4 252.652 55.1065 250.949 52.5196C249.245 49.9326 248.4 45.9444 248.4 40.528V34.0472C248.4 28.4691 249.287 24.4135 251.046 21.84C252.805 19.28 255.825 18 260.105 18C263.055 18 265.313 18.5255 266.892 19.5764C268.471 20.6274 269.579 22.2577 270.23 24.4808C270.868 26.704 271.2 29.776 271.2 33.6834V40.0429L256.808 40.0564ZM257.902 24.4269C257.473 24.9524 257.182 25.8147 257.03 27.0004C256.877 28.1861 256.808 30.0051 256.808 32.4168V35.0846H263.097V32.4168C263.097 30.032 263.014 28.2265 262.847 27.0004C262.681 25.7743 262.376 24.8985 261.947 24.4C261.518 23.9015 260.839 23.6455 259.925 23.6455C259.01 23.6455 258.332 23.9015 257.902 24.4269Z" fill="white"/>
<path opacity="0.2" d="M104.394 39.6833L94.8 4.81367H103.171L106.528 20.6138C107.384 24.5125 108.009 27.823 108.417 30.5726H108.661C108.947 28.6027 109.572 25.3059 110.55 20.6685L114.029 4.79999H122.4L112.684 39.6697V56.4H104.381V39.6833H104.394Z" fill="white"/>
<path opacity="0.2" d="M171.6 18V55.7829H165.018L164.285 51.1611H164.109C162.317 54.6583 159.63 56.4 156.061 56.4C153.577 56.4 151.745 55.5771 150.564 53.9314C149.384 52.2857 148.8 49.7211 148.8 46.224V18H157.214V45.744C157.214 47.4309 157.391 48.6377 157.757 49.3509C158.124 50.064 158.734 50.4343 159.589 50.4343C160.322 50.4343 161.028 50.2149 161.693 49.7623C162.358 49.3097 162.86 48.7337 163.186 48.0343V18H171.6Z" fill="white"/>
<path opacity="0.2" d="M214.8 18V55.7829H208.218L207.485 51.1611H207.309C205.517 54.6583 202.83 56.4 199.261 56.4C196.777 56.4 194.945 55.5771 193.764 53.9314C192.584 52.2857 192 49.7211 192 46.224V18H200.414V45.744C200.414 47.4309 200.591 48.6377 200.957 49.3509C201.324 50.064 201.934 50.4343 202.789 50.4343C203.522 50.4343 204.228 50.2149 204.893 49.7623C205.558 49.3097 206.06 48.7337 206.386 48.0343V18H214.8Z" fill="white"/>
<path opacity="0.2" d="M194.4 11.628H185.959V56.4H177.641V11.628H169.2V4.79999H194.386V11.628H194.4Z" fill="white"/>
<path opacity="0.2" d="M244.038 24.2132C243.512 21.8351 242.682 20.113 241.519 19.0469C240.357 17.9809 238.765 17.4479 236.731 17.4479C235.153 17.4479 233.686 17.8852 232.315 18.7736C230.945 19.6483 229.893 20.81 229.146 22.2451H229.077V2.40002H220.8V55.8533H227.886L228.758 52.2861H228.938C229.603 53.5572 230.599 54.5549 231.928 55.293C233.257 56.031 234.724 56.4 236.343 56.4C239.249 56.4 241.381 55.0743 242.751 52.4365C244.121 49.7987 244.8 45.6711 244.8 40.0538V34.0948C244.813 29.8852 244.55 26.5914 244.038 24.2132ZM236.163 39.5754C236.163 42.3226 236.052 44.4684 235.817 46.0265C235.596 47.5845 235.208 48.6916 234.668 49.3476C234.128 50.0037 233.409 50.3317 232.495 50.3317C231.789 50.3317 231.139 50.1677 230.53 49.8397C229.935 49.5116 229.437 49.0196 229.063 48.3636V26.9741C229.354 25.949 229.852 25.1153 230.558 24.4593C231.264 23.8032 232.025 23.4752 232.855 23.4752C233.727 23.4752 234.405 23.8169 234.876 24.4866C235.346 25.1563 235.679 26.3044 235.872 27.8898C236.052 29.4889 236.149 31.7577 236.149 34.7098L236.163 39.5754Z" fill="white"/>
</svg>
