<svg width="300" height="90" viewBox="0 0 300 90" fill="none" xmlns="http://www.w3.org/2000/svg">
<path d="M185.716 70.1293C168.306 83.0867 143.07 90 121.343 90C90.8781 90 63.4518 78.6227 42.7027 59.7001C41.0726 58.2121 42.5332 56.1842 44.4894 57.343C66.8817 70.498 94.5688 78.412 123.169 78.412C142.457 78.412 163.676 74.3826 183.186 66.0208C186.133 64.7567 188.598 67.9697 185.716 70.1293Z" fill="#FF9900"/>
<path d="M193.908 61.7582C191.676 58.9495 179.101 60.4312 173.456 61.0883C171.737 61.2944 171.474 59.8257 173.023 58.7692C183.039 51.8505 199.474 53.8475 201.39 56.1666C203.307 58.4986 200.891 74.6678 191.479 82.3852C190.036 83.5706 188.657 82.9393 189.3 81.3674C191.414 76.1881 196.153 64.5798 193.908 61.7582Z" fill="#FF9900"/>
<path d="M173.753 9.56743V2.72921C173.753 1.6943 174.544 1 175.493 1H206.298C207.286 1 208.077 1.7074 208.077 2.72921V8.58493C208.064 9.56743 207.234 10.8512 205.757 12.8817L189.795 35.5317C195.726 35.3876 201.988 36.2653 207.366 39.2783C208.578 39.9595 208.908 40.9552 209 41.9377V49.2344C209 50.23 207.893 51.3959 206.733 50.7933C197.255 45.8546 184.667 45.3175 174.188 50.8457C173.12 51.4221 172 50.2693 172 49.2737V42.3438C172 41.2303 172.013 39.3307 173.134 37.6408L191.627 11.2835H175.533C174.544 11.2835 173.753 10.5892 173.753 9.56743Z" fill="black"/>
<path d="M62.0243 52H52.6707C51.7762 51.9346 51.0658 51.268 51 50.4183V2.71896C51 1.76471 51.8025 1.00654 52.8023 1.00654H61.5244C62.4321 1.04573 63.1557 1.73856 63.2215 2.60131V8.83661H63.3925C65.6684 2.81046 69.9439 0 75.706 0C81.5602 0 85.2174 2.81046 87.8485 8.83661C90.1113 2.81046 95.2551 0 100.767 0C104.688 0 108.976 1.60784 111.594 5.21569C114.554 9.22876 113.949 15.0588 113.949 20.1699L113.936 50.2745C113.936 51.2288 113.133 52 112.134 52H102.793C101.859 51.9346 101.109 51.1895 101.109 50.2745V24.9935C101.109 22.9804 101.293 17.9608 100.846 16.0523C100.149 12.8497 98.0572 11.9477 95.3472 11.9477C93.0844 11.9477 90.7164 13.451 89.7561 15.8562C88.7957 18.2614 88.8878 22.2876 88.8878 24.9935V50.2745C88.8878 51.2288 88.0853 52 87.0855 52H77.7451C76.7979 51.9346 76.0612 51.1895 76.0612 50.2745L76.0481 24.9935C76.0481 19.6732 76.9295 11.8431 70.2859 11.8431C63.5635 11.8431 63.8266 19.4771 63.8266 24.9935V50.2745C63.8266 51.2288 63.0241 52 62.0243 52Z" fill="black"/>
<path d="M233.831 0C247.566 0 255 11.8446 255 26.9053C255 41.4561 246.785 53 233.831 53C220.343 53 213 41.1554 213 26.3954C213 11.5439 220.434 0 233.831 0ZM233.909 9.73977C227.087 9.73977 226.657 19.0742 226.657 24.892C226.657 30.7228 226.566 43.1687 233.831 43.1687C241.004 43.1687 241.343 33.1283 241.343 27.0099C241.343 22.9832 241.174 18.1722 239.963 14.3547C238.921 11.034 236.851 9.73977 233.909 9.73977Z" fill="black"/>
<path d="M272.889 52H263.678C262.755 51.9346 262.013 51.1895 262.013 50.2745L262 2.56209C262.078 1.68627 262.846 1.00654 263.782 1.00654H272.355C273.162 1.04573 273.825 1.59477 274.008 2.33987V9.63399H274.177C276.765 3.11111 280.395 0 286.783 0C290.933 0 294.978 1.50327 297.58 5.62091C300 9.43791 300 15.8562 300 20.4706V50.4967C299.896 51.3333 299.128 52 298.218 52H288.942C288.097 51.9346 287.394 51.3072 287.303 50.4967V24.5882C287.303 19.3726 287.901 11.7386 281.514 11.7386C279.263 11.7386 277.195 13.2549 276.167 15.5556C274.866 18.4706 274.697 21.3726 274.697 24.5882V50.2745C274.684 51.2288 273.877 52 272.889 52Z" fill="black"/>
<path d="M149.119 29.6111V27.6023C142.466 27.6023 135.437 29.0372 135.437 36.9422C135.437 40.9468 137.495 43.6601 141.029 43.6601C143.618 43.6601 145.935 42.0556 147.398 39.4467C149.21 36.2378 149.119 33.2245 149.119 29.6111ZM158.401 52.2173C157.792 52.7652 156.912 52.8043 156.226 52.4391C153.171 49.8824 152.627 48.6953 150.944 46.256C145.896 51.4477 142.323 53 135.773 53C128.032 53 122 48.1866 122 38.5467C122 31.0199 126.052 25.8934 131.812 23.3889C136.809 21.1713 143.786 20.78 149.119 20.1669V18.9668C149.119 16.7622 149.288 14.1533 148.006 12.2488C146.88 10.54 144.731 9.83559 142.841 9.83559C139.333 9.83559 136.2 11.6488 135.437 15.4056C135.281 16.2405 134.673 17.0623 133.844 17.1014L124.913 16.1361C124.162 15.9665 123.333 15.3534 123.54 14.1925C125.599 3.28723 135.372 0 144.123 0C148.601 0 154.453 1.2001 157.986 4.61777C162.465 8.83116 162.038 14.4534 162.038 20.5713V35.0246C162.038 39.3685 163.825 41.273 165.507 43.621C166.103 44.4558 166.232 45.4603 165.481 46.0864C163.604 47.6648 160.265 50.5998 158.427 52.2434L158.401 52.2173Z" fill="black"/>
<path d="M27.1193 29.6111V27.6023C20.4657 27.6023 13.4367 29.0372 13.4367 36.9422C13.4367 40.9468 15.4949 43.6601 19.0288 43.6601C21.6178 43.6601 23.9349 42.0556 25.3976 39.4467C27.2099 36.2378 27.1193 33.2245 27.1193 29.6111ZM36.4007 52.2173C35.7923 52.7652 34.912 52.8043 34.226 52.4391C31.171 49.8824 30.6273 48.6953 28.9445 46.256C23.896 51.4477 20.3233 53 13.7732 53C6.03225 53 0 48.1866 0 38.5467C0 31.0199 4.05171 25.8934 9.81213 23.3889C14.8088 21.1713 21.786 20.78 27.1193 20.1669V18.9668C27.1193 16.7622 27.2876 14.1533 26.006 12.2488C24.8798 10.54 22.731 9.83559 20.8411 9.83559C17.333 9.83559 14.2004 11.6488 13.4367 15.4056C13.2813 16.2405 12.6729 17.0623 11.8445 17.1014L2.91257 16.1361C2.16177 15.9665 1.33331 15.3534 1.54042 14.1925C3.59864 3.28723 13.3719 0 22.1226 0C26.6015 0 32.4525 1.2001 35.9864 4.61777C40.4653 8.83116 40.0382 14.4534 40.0382 20.5713V35.0246C40.0382 39.3685 41.8245 41.273 43.5074 43.621C44.1028 44.4558 44.2323 45.4603 43.4815 46.0864C41.6045 47.6648 38.2647 50.5998 36.4266 52.2434L36.4007 52.2173Z" fill="black"/>
</svg>
