<svg width="523" height="70" viewBox="0 0 523 70" fill="none" xmlns="http://www.w3.org/2000/svg">
<path d="M24.5573 59.0586H33.2714V10H20.5938C7.85055 10 1.15211 16.4243 1.15211 25.8829C1.15211 33.4364 4.82489 37.8829 11.379 42.4686L0 59.0607H9.43334L22.1088 40.4971L17.7146 37.6021C12.389 34.0707 9.79406 31.3171 9.79406 25.3879C9.79406 20.1657 13.539 16.6343 20.6681 16.6343H24.5573V59.0586ZM192.569 59.7657C196.53 59.7657 199.338 59.0586 201.428 57.5757V50.7293C199.265 52.2121 196.673 53.1293 193.072 53.1293C186.951 53.1293 184.43 48.4707 184.43 41.1293C184.43 33.4364 187.528 29.4829 193.144 29.4829C196.458 29.4829 199.698 30.6121 201.425 31.6686V24.5436C199.626 23.5557 196.458 22.8507 192.208 22.8507C181.262 22.8507 175.572 30.5436 175.572 41.3436C175.572 53.2021 181.118 59.7657 192.569 59.7657ZM138.99 56.6586V49.8143C136.323 51.5779 131.859 53.1314 127.683 53.1314C121.418 53.1314 119.042 50.2386 118.681 44.3071H139.349V39.8607C139.349 27.5071 133.805 22.8486 125.235 22.8486C114.792 22.8486 109.822 30.685 109.822 41.4143C109.822 53.7657 116.016 59.7679 126.962 59.7679C132.436 59.7679 136.468 58.3514 138.99 56.6586ZM60.4914 23.5514V37.6H49.0403V23.5536H40.4705V59.0607H49.0403V44.2364H60.4914V59.0586H69.0612V23.5514H60.4914ZM107.735 52.4264H103.918V23.5536H78.9296V26.5857C78.9296 35.2686 78.3525 46.4929 75.3268 52.4221H72.664V67.1736H80.5846V59.0564H99.8141V67.1736H107.735V52.4221V52.4264ZM166.355 59.0607H176.077L162.321 39.9314L174.422 23.5557H165.778L153.677 39.9314V23.5536H145.107V59.0607H153.677V41.6243L166.353 59.0586L166.355 59.0607ZM125.093 29.4829C129.341 29.4829 130.637 32.9414 130.637 37.39V38.095H118.683C118.899 32.4464 120.987 29.4807 125.093 29.4807V29.4829ZM95.3478 52.4243H83.2495C85.6259 47.0586 86.2752 37.3879 86.2752 31.2464V30.1879H95.3478V52.4243ZM320.713 59.0586H327.915L338.139 22V59.0586H346.351V10H335.044L324.889 46.1414L314.878 10H303.357V59.0586H310.486V22L320.713 59.0586ZM358.18 70C366.173 70 369.126 64.4243 371.575 57.1536L382.882 23.5536H374.598L366.605 50.2343L358.611 23.5536H349.61L362.069 60.6121C361.131 62.305 359.763 63.3657 357.386 63.3657C355.804 63.3657 354.435 62.8707 353.499 61.9514V68.8C353.499 68.8 354.796 70 358.18 70ZM395.358 53.1293C390.966 53.1293 386.644 51.5757 384.34 49.8829V56.7293C385.997 58.0707 390.172 59.7657 396.366 59.7657C405.513 59.7657 410.338 55.7414 410.338 48.6121C410.338 44.4464 407.673 41.6243 402.92 40.6364C407.384 39.2221 409.258 36.1171 409.258 32.1636C409.258 26.1636 404.433 22.8464 396.654 22.8464C391.038 22.8464 387.365 24.5393 385.275 25.8121V32.6586C387.582 31.1757 390.75 29.4829 395.43 29.4829C398.6 29.4829 400.616 30.9657 400.616 33.5757C400.616 36.3293 398.887 37.8121 395.358 37.8121H389.958V44.1657H395.358C399.752 44.1657 401.479 45.4343 401.479 48.5414C401.479 51.3636 399.392 53.1293 395.358 53.1293ZM416.092 23.5536V59.0607H429.126C437.551 59.0607 443.528 54.8243 443.528 46.495C443.528 38.5879 438.201 34.4243 429.27 34.4243H424.662V23.5536H416.092ZM446.698 23.5536V59.0607H455.268V23.5514L446.698 23.5536ZM428.623 52.4243H424.662V41.0586H428.837C432.51 41.0586 434.672 42.6829 434.672 46.7757C434.672 50.8686 432.296 52.4243 428.623 52.4243ZM483.682 59.0586H493.404L479.648 39.9293L491.746 23.5536H483.105L471.006 39.9293V23.5536H462.436V59.0607H471.006V41.6243L483.682 59.0586ZM522.569 34.8464C522.569 26.2343 518.103 22.9879 509.03 22.9879C503.34 22.9879 498.876 24.7536 496.283 26.2343V33.2243C498.587 31.5314 503.628 29.695 508.023 29.695C512.126 29.695 514 31.105 514 34.9171V36.895H512.631C499.525 36.895 493.69 41.1293 493.69 48.3293C493.69 55.5293 498.156 59.5536 504.78 59.5536C509.822 59.5536 511.982 57.9293 513.639 56.2343H514C514.072 57.1536 514.358 58.3536 514.647 59.0586H523C522.714 56.1728 522.57 53.2751 522.569 50.3757V34.8464ZM514 50.5879C512.92 52.1414 510.902 53.4121 507.878 53.4121C504.278 53.4121 502.476 51.295 502.476 48.1193C502.476 43.9536 505.43 42.4707 512.775 42.4707H514V50.5879Z" fill="black"/>
<path d="M230.758 6.55766C235.791 2.82051 241.74 0.561358 247.94 0V10.2804C243.932 10.8011 240.105 12.3386 236.831 14.7697C232.731 17.8136 229.716 22.0972 228.231 26.9887C226.745 31.8801 226.868 37.1203 228.581 41.9364C230.294 46.7526 233.506 50.89 237.744 53.7377C241.981 56.5854 247.02 57.993 252.117 57.7533C257.214 57.5131 262.099 55.6381 266.051 52.4048C270.004 49.1711 272.815 44.7504 274.069 39.7947C274.945 36.3378 275.03 32.7482 274.345 29.2877L282.96 22.3474L282.954 22.2915C285.28 28.7018 285.635 35.6757 283.956 42.3078C282.164 49.3876 278.148 55.7029 272.502 60.3222C266.855 64.9411 259.877 67.6197 252.596 67.9624C245.315 68.3052 238.116 66.2943 232.062 62.2259C226.009 58.158 221.42 52.2478 218.973 45.3674C216.526 38.4872 216.351 31.0011 218.472 24.0134C220.594 17.0256 224.901 10.9062 230.758 6.55766Z" fill="#FCCA00"/>
<path d="M276.964 10.8694L277 10.9599L271.252 20.1147C269.162 17.0085 266.361 14.423 263.083 12.5929V33.4264C263.083 39.8183 257.915 45 251.541 45C245.167 45 240 39.8183 240 33.4264C240 27.0344 245.167 21.8527 251.541 21.8527C253.93 21.8527 256.149 22.5806 257.991 23.8271V0C265.484 1.44527 272.1 5.36126 276.964 10.8694Z" fill="#FC3F1D"/>
</svg>
