<svg width="334" height="100" viewBox="0 0 334 100" fill="none" xmlns="http://www.w3.org/2000/svg">
<path d="M49.9875 0C22.3808 0 0 22.3856 0 49.9991C0 77.6155 22.3808 100 49.9875 100C77.5955 100 99.975 77.6156 99.975 49.9991C99.975 22.3874 77.5967 0.00238642 49.9869 0.00238642L49.9875 0ZM72.9115 72.113C72.0137 73.586 70.0952 74.0475 68.6274 73.1501C56.889 65.974 42.1142 64.353 24.7141 68.3288C23.0373 68.7134 21.366 67.6619 20.984 65.9854C20.6001 64.3082 21.6465 62.6365 23.3274 62.2544C42.369 57.9 58.7025 59.7742 71.8782 67.8273C73.3466 68.7289 73.8122 70.6455 72.9109 72.1142L72.9115 72.113ZM79.0298 58.5007C77.8993 60.3354 75.5009 60.911 73.6689 59.7843C60.2354 51.5246 39.751 49.1321 23.8581 53.9576C21.7969 54.5804 19.62 53.4185 18.9944 51.3604C18.3736 49.2987 19.5359 47.1254 21.5934 46.4985C39.7474 40.9889 62.3156 43.6577 77.7458 53.1421C79.5784 54.2705 80.1574 56.6707 79.0292 58.5012L79.0298 58.5007ZM79.5551 44.324C63.442 34.7525 36.8637 33.8725 21.4817 38.5421C19.0117 39.2914 16.3996 37.8966 15.6511 35.426C14.9026 32.9542 16.2958 30.3432 18.7676 29.5921C36.425 24.2305 65.7783 25.2664 84.3268 36.2804C86.5486 37.5993 87.2774 40.4694 85.9606 42.6886C84.6474 44.9109 81.7696 45.6435 79.5551 44.324ZM136 46.1582C127.369 44.0995 125.832 42.6547 125.832 39.6186C125.832 36.7503 128.532 34.82 132.547 34.82C136.439 34.82 140.298 36.2858 144.344 39.3033C144.466 39.3947 144.62 39.4311 144.771 39.4072C144.922 39.3845 145.055 39.3015 145.144 39.1768L149.358 33.2348C149.531 32.99 149.484 32.6527 149.25 32.4658C144.435 28.601 139.013 26.722 132.675 26.722C123.356 26.722 116.846 32.3159 116.846 40.3195C116.846 48.9023 122.461 51.9413 132.165 54.2872C140.424 56.19 141.818 57.7842 141.818 60.6339C141.818 63.7918 138.999 65.7549 134.463 65.7549C129.425 65.7549 125.316 64.0575 120.719 60.0757C120.605 59.9772 120.449 59.9324 120.304 59.9408C120.152 59.9533 120.013 60.0238 119.916 60.1402L115.191 65.7651C114.993 65.9985 115.018 66.3472 115.247 66.5491C120.596 71.3249 127.174 73.8475 134.272 73.8475C144.314 73.8475 150.803 68.3594 150.803 59.865C150.821 52.6943 146.529 48.7238 136.017 46.166L136 46.1582ZM173.522 37.6441C169.169 37.6441 165.599 39.3589 162.655 42.8725V38.9176C162.655 38.6054 162.402 38.351 162.09 38.351H154.362C154.05 38.351 153.797 38.6054 153.797 38.9176V82.8625C153.797 83.1748 154.05 83.4291 154.362 83.4291H162.09C162.402 83.4291 162.655 83.1748 162.655 82.8625V68.991C165.599 72.2963 169.17 73.9114 173.522 73.9114C181.609 73.9114 189.797 67.6841 189.797 55.7798C189.808 43.8726 181.619 37.6435 173.531 37.6435L173.522 37.6441ZM180.81 55.7798C180.81 61.8418 177.077 66.072 171.731 66.072C166.447 66.072 162.461 61.6495 162.461 55.7798C162.461 49.9107 166.447 45.4877 171.731 45.4877C176.99 45.4871 180.811 49.8146 180.811 55.7792L180.81 55.7798ZM210.781 37.6441C200.366 37.6441 192.206 45.6662 192.206 55.9094C192.206 66.0409 200.309 73.9788 210.653 73.9788C221.106 73.9788 229.291 65.9836 229.291 55.7798C229.291 45.6112 221.161 37.6453 210.781 37.6453L210.781 37.6441ZM210.781 66.1323C205.241 66.1323 201.065 61.68 201.065 55.7768C201.065 49.8486 205.097 45.5468 210.653 45.5468C216.229 45.5468 220.434 49.999 220.434 55.9064C220.434 61.8334 216.374 66.1323 210.781 66.1323ZM251.533 38.351H243.028V29.6542C243.028 29.3426 242.776 29.0882 242.464 29.0882H234.737C234.424 29.0882 234.171 29.3426 234.171 29.6542V38.351H230.455C230.144 38.351 229.892 38.6054 229.892 38.9176V45.5611C229.892 45.8728 230.144 46.1277 230.455 46.1277H234.171V63.3177C234.171 70.2645 237.627 73.7866 244.445 73.7866C247.217 73.7866 249.517 73.214 251.684 71.9847C251.86 71.8861 251.969 71.6963 251.969 71.4945V65.168C251.969 64.9728 251.868 64.7883 251.701 64.6862C251.533 64.5805 251.323 64.5752 251.15 64.6605C249.662 65.4099 248.223 65.7555 246.614 65.7555C244.134 65.7555 243.028 64.6295 243.028 62.1057V46.1308H251.533C251.845 46.1308 252.096 45.8764 252.096 45.5642V38.9213C252.108 38.609 251.857 38.3547 251.541 38.3547L251.533 38.351ZM281.163 38.3851V37.3169C281.163 34.1745 282.368 32.7733 285.07 32.7733C286.681 32.7733 287.975 33.0933 289.424 33.5769C289.603 33.6331 289.789 33.605 289.934 33.4981C290.083 33.3912 290.167 33.2199 290.167 33.0383V26.5244C290.167 26.2754 290.007 26.0551 289.767 25.9817C288.236 25.5261 286.277 25.0586 283.344 25.0586C276.206 25.0586 272.433 29.0792 272.433 36.6816V38.3175H268.72C268.409 38.3175 268.153 38.5719 268.153 38.8836V45.5611C268.153 45.8728 268.409 46.1277 268.72 46.1277H272.433V72.6426C272.433 72.9548 272.685 73.2092 272.996 73.2092H280.725C281.037 73.2092 281.291 72.9548 281.291 72.6426V46.1295H288.507L299.56 72.6379C298.305 75.4231 297.071 75.9772 295.387 75.9772C294.025 75.9772 292.591 75.5706 291.125 74.7682C290.988 74.6923 290.824 74.6798 290.675 74.7258C290.528 74.7777 290.404 74.8876 290.341 75.0309L287.722 80.7788C287.597 81.0504 287.704 81.3693 287.965 81.5102C290.7 82.9915 293.168 83.6237 296.219 83.6237C301.925 83.6237 305.08 80.965 307.86 73.8122L321.267 39.1588C321.335 38.9845 321.314 38.7874 321.208 38.6328C321.101 38.4794 320.93 38.3868 320.743 38.3868H312.697C312.456 38.3868 312.241 38.5403 312.162 38.7666L303.92 62.3135L294.893 38.751C294.811 38.5319 294.6 38.3868 294.366 38.3868H281.162L281.163 38.3851ZM263.984 38.351H256.256C255.944 38.351 255.689 38.6054 255.689 38.9176V72.6426C255.689 72.9549 255.944 73.2092 256.256 73.2092H263.984C264.296 73.2092 264.551 72.9549 264.551 72.6426V38.92C264.551 38.8455 264.536 38.7717 264.508 38.7028C264.479 38.634 264.438 38.5714 264.385 38.5187C264.332 38.4661 264.27 38.4244 264.201 38.396C264.132 38.3676 264.058 38.3531 263.984 38.3534L263.984 38.351ZM260.164 22.9952C257.102 22.9952 254.618 25.4742 254.618 28.5365C254.618 31.6007 257.103 34.0827 260.164 34.0827C263.224 34.0827 265.706 31.6007 265.706 28.5365C265.706 25.4748 263.223 22.9952 260.167 22.9952H260.164ZM327.866 49.1942C324.808 49.1942 322.428 46.7373 322.428 43.7538C322.428 40.7703 324.839 38.2853 327.895 38.2853C330.953 38.2853 333.333 40.7416 333.333 43.7228C333.333 46.7063 330.922 49.1942 327.866 49.1942ZM327.896 38.8263C325.11 38.8263 323.003 41.0414 323.003 43.7538C323.003 46.4651 325.095 48.6503 327.868 48.6503C330.653 48.6503 332.763 46.437 332.763 43.7228C332.763 41.0115 330.668 38.8263 327.898 38.8263H327.896ZM329.102 44.2822L330.64 46.4364H329.343L327.958 44.4602H326.767V46.4364H325.682V40.7261H328.227C329.554 40.7261 330.426 41.405 330.426 42.5478C330.432 43.484 329.889 44.056 329.107 44.2822L329.102 44.2822ZM328.183 41.7059H326.767V43.512H328.183C328.889 43.512 329.311 43.1663 329.311 42.6081C329.311 42.0206 328.887 41.7059 328.183 41.7059Z" fill="#2EBD59"/>
<path d="M49.9875 0C22.3808 0 0 22.3856 0 49.9991C0 77.6155 22.3808 100 49.9875 100C77.5955 100 99.975 77.6156 99.975 49.9991C99.975 22.3874 77.5967 0.00238642 49.9869 0.00238642L49.9875 0ZM72.9115 72.113C72.0137 73.586 70.0952 74.0475 68.6274 73.1501C56.889 65.974 42.1142 64.353 24.7141 68.3288C23.0373 68.7134 21.366 67.6619 20.984 65.9854C20.6001 64.3082 21.6465 62.6365 23.3274 62.2544C42.369 57.9 58.7025 59.7742 71.8782 67.8273C73.3466 68.7289 73.8122 70.6455 72.9109 72.1142L72.9115 72.113ZM79.0298 58.5007C77.8993 60.3354 75.5009 60.911 73.6689 59.7843C60.2354 51.5246 39.751 49.1321 23.8581 53.9576C21.7969 54.5804 19.62 53.4185 18.9944 51.3604C18.3736 49.2987 19.5359 47.1254 21.5934 46.4985C39.7474 40.9889 62.3156 43.6577 77.7458 53.1421C79.5784 54.2705 80.1574 56.6707 79.0292 58.5012L79.0298 58.5007ZM79.5551 44.324C63.442 34.7525 36.8637 33.8725 21.4817 38.5421C19.0117 39.2914 16.3996 37.8966 15.6511 35.426C14.9026 32.9542 16.2958 30.3432 18.7676 29.5921C36.425 24.2305 65.7783 25.2664 84.3268 36.2804C86.5486 37.5993 87.2774 40.4694 85.9606 42.6886C84.6474 44.9109 81.7696 45.6435 79.5551 44.324ZM136 46.1582C127.369 44.0995 125.832 42.6547 125.832 39.6186C125.832 36.7503 128.532 34.82 132.547 34.82C136.439 34.82 140.298 36.2858 144.344 39.3033C144.466 39.3947 144.62 39.4311 144.771 39.4072C144.922 39.3845 145.055 39.3015 145.144 39.1768L149.358 33.2348C149.531 32.99 149.484 32.6527 149.25 32.4658C144.435 28.601 139.013 26.722 132.675 26.722C123.356 26.722 116.846 32.3159 116.846 40.3195C116.846 48.9023 122.461 51.9413 132.165 54.2872C140.424 56.19 141.818 57.7842 141.818 60.6339C141.818 63.7918 138.999 65.7549 134.463 65.7549C129.425 65.7549 125.316 64.0575 120.719 60.0757C120.605 59.9772 120.449 59.9324 120.304 59.9408C120.152 59.9533 120.013 60.0238 119.916 60.1402L115.191 65.7651C114.993 65.9985 115.018 66.3472 115.247 66.5491C120.596 71.3249 127.174 73.8475 134.272 73.8475C144.314 73.8475 150.803 68.3594 150.803 59.865C150.821 52.6943 146.529 48.7238 136.017 46.166L136 46.1582ZM173.522 37.6441C169.169 37.6441 165.599 39.3589 162.655 42.8725V38.9176C162.655 38.6054 162.402 38.351 162.09 38.351H154.362C154.05 38.351 153.797 38.6054 153.797 38.9176V82.8625C153.797 83.1748 154.05 83.4291 154.362 83.4291H162.09C162.402 83.4291 162.655 83.1748 162.655 82.8625V68.991C165.599 72.2963 169.17 73.9114 173.522 73.9114C181.609 73.9114 189.797 67.6841 189.797 55.7798C189.808 43.8726 181.619 37.6435 173.531 37.6435L173.522 37.6441ZM180.81 55.7798C180.81 61.8418 177.077 66.072 171.731 66.072C166.447 66.072 162.461 61.6495 162.461 55.7798C162.461 49.9107 166.447 45.4877 171.731 45.4877C176.99 45.4871 180.811 49.8146 180.811 55.7792L180.81 55.7798ZM210.781 37.6441C200.366 37.6441 192.206 45.6662 192.206 55.9094C192.206 66.0409 200.309 73.9788 210.653 73.9788C221.106 73.9788 229.291 65.9836 229.291 55.7798C229.291 45.6112 221.161 37.6453 210.781 37.6453L210.781 37.6441ZM210.781 66.1323C205.241 66.1323 201.065 61.68 201.065 55.7768C201.065 49.8486 205.097 45.5468 210.653 45.5468C216.229 45.5468 220.434 49.999 220.434 55.9064C220.434 61.8334 216.374 66.1323 210.781 66.1323ZM251.533 38.351H243.028V29.6542C243.028 29.3426 242.776 29.0882 242.464 29.0882H234.737C234.424 29.0882 234.171 29.3426 234.171 29.6542V38.351H230.455C230.144 38.351 229.892 38.6054 229.892 38.9176V45.5611C229.892 45.8728 230.144 46.1277 230.455 46.1277H234.171V63.3177C234.171 70.2645 237.627 73.7866 244.445 73.7866C247.217 73.7866 249.517 73.214 251.684 71.9847C251.86 71.8861 251.969 71.6963 251.969 71.4945V65.168C251.969 64.9728 251.868 64.7883 251.701 64.6862C251.533 64.5805 251.323 64.5752 251.15 64.6605C249.662 65.4099 248.223 65.7555 246.614 65.7555C244.134 65.7555 243.028 64.6295 243.028 62.1057V46.1308H251.533C251.845 46.1308 252.096 45.8764 252.096 45.5642V38.9213C252.108 38.609 251.857 38.3547 251.541 38.3547L251.533 38.351ZM281.163 38.3851V37.3169C281.163 34.1745 282.368 32.7733 285.07 32.7733C286.681 32.7733 287.975 33.0933 289.424 33.5769C289.603 33.6331 289.789 33.605 289.934 33.4981C290.083 33.3912 290.167 33.2199 290.167 33.0383V26.5244C290.167 26.2754 290.007 26.0551 289.767 25.9817C288.236 25.5261 286.277 25.0586 283.344 25.0586C276.206 25.0586 272.433 29.0792 272.433 36.6816V38.3175H268.72C268.409 38.3175 268.153 38.5719 268.153 38.8836V45.5611C268.153 45.8728 268.409 46.1277 268.72 46.1277H272.433V72.6426C272.433 72.9548 272.685 73.2092 272.996 73.2092H280.725C281.037 73.2092 281.291 72.9548 281.291 72.6426V46.1295H288.507L299.56 72.6379C298.305 75.4231 297.071 75.9772 295.387 75.9772C294.025 75.9772 292.591 75.5706 291.125 74.7682C290.988 74.6923 290.824 74.6798 290.675 74.7258C290.528 74.7777 290.404 74.8876 290.341 75.0309L287.722 80.7788C287.597 81.0504 287.704 81.3693 287.965 81.5102C290.7 82.9915 293.168 83.6237 296.219 83.6237C301.925 83.6237 305.08 80.965 307.86 73.8122L321.267 39.1588C321.335 38.9845 321.314 38.7874 321.208 38.6328C321.101 38.4794 320.93 38.3868 320.743 38.3868H312.697C312.456 38.3868 312.241 38.5403 312.162 38.7666L303.92 62.3135L294.893 38.751C294.811 38.5319 294.6 38.3868 294.366 38.3868H281.162L281.163 38.3851ZM263.984 38.351H256.256C255.944 38.351 255.689 38.6054 255.689 38.9176V72.6426C255.689 72.9549 255.944 73.2092 256.256 73.2092H263.984C264.296 73.2092 264.551 72.9549 264.551 72.6426V38.92C264.551 38.8455 264.536 38.7717 264.508 38.7028C264.479 38.634 264.438 38.5714 264.385 38.5187C264.332 38.4661 264.27 38.4244 264.201 38.396C264.132 38.3676 264.058 38.3531 263.984 38.3534L263.984 38.351ZM260.164 22.9952C257.102 22.9952 254.618 25.4742 254.618 28.5365C254.618 31.6007 257.103 34.0827 260.164 34.0827C263.224 34.0827 265.706 31.6007 265.706 28.5365C265.706 25.4748 263.223 22.9952 260.167 22.9952H260.164ZM327.866 49.1942C324.808 49.1942 322.428 46.7373 322.428 43.7538C322.428 40.7703 324.839 38.2853 327.895 38.2853C330.953 38.2853 333.333 40.7416 333.333 43.7228C333.333 46.7063 330.922 49.1942 327.866 49.1942ZM327.896 38.8263C325.11 38.8263 323.003 41.0414 323.003 43.7538C323.003 46.4651 325.095 48.6503 327.868 48.6503C330.653 48.6503 332.763 46.437 332.763 43.7228C332.763 41.0115 330.668 38.8263 327.898 38.8263H327.896ZM329.102 44.2822L330.64 46.4364H329.343L327.958 44.4602H326.767V46.4364H325.682V40.7261H328.227C329.554 40.7261 330.426 41.405 330.426 42.5478C330.432 43.484 329.889 44.056 329.107 44.2822L329.102 44.2822ZM328.183 41.7059H326.767V43.512H328.183C328.889 43.512 329.311 43.1663 329.311 42.6081C329.311 42.0206 328.887 41.7059 328.183 41.7059Z" fill="#2EBD59"/>
</svg>
