<svg width="349" height="100" viewBox="0 0 349 100" fill="none" xmlns="http://www.w3.org/2000/svg">
<path opacity="0.2" d="M116.694 61.667C116.694 58.7504 120.279 55.6671 120.612 56.0004C123.113 58.2504 127.947 60.5003 132.031 60.5003C135.699 60.5003 137.366 59.417 137.366 57.417C137.366 55.0004 134.365 55.0004 130.448 54.1671C124.03 52.8337 117.528 50.0838 117.528 42.0838C117.528 34.0839 123.363 29.1673 133.949 29.1673C144.034 29.1673 148.452 32.6673 148.452 36.5839C148.452 39.9172 144.451 42.8338 144.201 42.5838C141.617 40.1672 137.616 38.4172 134.032 38.4172C130.614 38.4172 128.864 39.5005 128.864 41.4172C128.864 43.6672 131.948 43.5005 136.032 44.4172C143.618 46.0838 149.369 49.4171 149.369 56.5004C149.369 64.917 143.618 69.6669 131.948 69.6669C120.779 69.6669 116.694 65.7503 116.694 61.667Z" fill="white"/>
<path opacity="0.2" d="M153.37 63.5837V35.334C153.37 31.584 155.12 29.7507 158.371 29.7507H160.122C163.539 29.7507 165.373 31.584 165.373 35.334V44.3339H177.709V35.334C177.709 31.584 179.459 29.7507 182.71 29.7507H184.461C187.878 29.7507 189.629 31.584 189.629 35.334V63.5837C189.629 67.2503 187.878 69.167 184.461 69.167H182.71C179.459 69.167 177.709 67.2503 177.709 63.5837V54.4171H165.373V63.5837C165.373 67.2503 163.622 69.167 160.122 69.167H158.371C155.037 69.167 153.37 67.2503 153.37 63.5837Z" fill="white"/>
<path opacity="0.2" d="M232.305 64.0838V63.5838C232.305 60.0839 233.472 58.8339 235.473 56.6672L250.143 39.9174H238.057C234.639 39.9174 232.806 38.6674 232.806 35.2508V34.7508C232.806 31.4175 234.556 30.0841 238.057 30.0841H259.645C263.98 30.0841 265.73 32.4175 265.73 34.7508V35.3341C265.73 38.7507 264.48 40.1674 262.563 42.1674L247.642 58.9172H260.896C264.313 58.9172 266.147 60.2505 266.147 63.6672V64.1671C266.147 67.5005 264.396 68.9171 260.896 68.9171H238.474C234.056 68.8338 232.305 66.4171 232.305 64.0838Z" fill="white"/>
<path opacity="0.2" d="M210.3 29.0006C202.548 29.0006 195.213 32.7506 195.213 37.6672C195.213 43.7505 202.715 43.5838 202.715 43.5838C203.549 40.2505 206.216 38.5839 209.717 38.5839C215.135 38.5839 217.135 41.2505 217.135 45.0838H214.468C199.047 45.0838 193.213 51.2504 193.213 58.3337C193.213 65.1669 198.881 69.7502 206.383 69.7502C211.55 69.7502 216.552 67.8336 217.552 64.167C218.052 67.0003 220.636 69.5002 224.137 69.5002C227.221 69.5002 228.721 68.4169 228.805 68.0836V44.2505C228.721 34.5006 222.22 29.0006 210.3 29.0006ZM217.052 54.417C217.052 58.5003 213.968 61.2503 209.967 61.2503C207.049 61.2503 205.216 59.7503 205.216 57.3337C205.216 53.4171 210.467 51.7504 214.468 51.6671H217.135V54.417H217.052Z" fill="white"/>
<path opacity="0.2" d="M285.568 29.0006C277.816 29.0006 270.481 32.7506 270.481 37.6672C270.481 43.7505 277.983 43.5838 277.983 43.5838C278.817 40.2505 281.484 38.5839 284.985 38.5839C290.403 38.5839 292.403 41.2505 292.403 45.0838H289.736C274.316 45.0838 268.481 51.2504 268.481 58.3337C268.481 65.1669 274.149 69.7502 281.651 69.7502C286.818 69.7502 291.82 67.8336 292.82 64.167C293.32 67.0003 295.904 69.5002 299.405 69.5002C302.489 69.5002 303.989 68.4169 304.073 68.0836V44.2505C303.989 34.5006 297.488 29.0006 285.568 29.0006ZM292.32 54.417C292.32 58.5003 289.236 61.2503 285.235 61.2503C282.317 61.2503 280.484 59.7503 280.484 57.3337C280.484 53.4171 285.735 51.7504 289.736 51.6671H292.32V54.417Z" fill="white"/>
<path opacity="0.2" d="M308.407 63.5836V35.5006C308.407 31.6673 310.324 29.7506 313.742 29.7506H317.159C320.327 29.7506 321.41 30.5006 322.494 33.0006L328.745 48.5004L335.08 33.0006C336.247 30.3339 337.497 29.7506 340.165 29.7506H343.499C347.083 29.7506 349 31.6673 349 35.5006V63.5836C349 67.2503 347.75 69.1669 344.332 69.1669H342.415C339.164 69.1669 337.747 67.2503 337.747 63.5836V47.0005L333.663 58.417C333.163 59.917 333.08 61.3337 328.579 61.3337C324.077 61.3337 324.244 59.917 323.577 58.417L319.576 47.5004V63.667C319.576 67.3336 318.409 69.2502 314.909 69.2502H312.991C309.741 69.1669 308.407 67.2503 308.407 63.5836Z" fill="white"/>
<path opacity="0.2" d="M0 50.0005C0 77.6669 22.5054 100 50.0119 100C77.6852 100 100.024 77.5002 100.024 50.0005C100.024 22.3341 77.5185 0.000923157 50.0119 0.000923157C22.5054 -0.165741 0 22.3341 0 50.0005Z" fill="white"/>
<path opacity="0.2" d="M41.3432 69.1669C36.0919 69.1669 30.924 67.4169 26.8397 64.0003C21.9218 59.7503 19.0045 54.0004 18.5877 47.7505C18.2543 41.6672 20.2548 35.8339 24.4225 31.2506C29.0902 26.1673 37.3422 18.1674 37.759 17.8341C40.0095 15.6674 43.5937 15.7508 45.7609 18.0007C47.9281 20.2507 47.8447 23.834 45.5942 26.0007C45.5108 26.084 37.1755 34.0006 32.8411 38.8339C30.7573 41.0839 29.7571 44.0005 29.9238 47.0005C30.0905 50.1671 31.6742 53.1671 34.2581 55.4171C37.6756 58.417 44.4272 59.0004 48.6782 55.2504C51.1788 53.0004 54.2629 49.6671 54.2629 49.6671C56.3467 47.3338 59.9309 47.2505 62.2648 49.3338C64.5987 51.4171 64.6821 55.0004 62.5982 57.3337C62.4315 57.5004 59.1808 61.0837 56.18 63.667C52.1791 67.3336 46.7611 69.1669 41.3432 69.1669ZM75.518 68.7503C70.8502 73.8335 62.5149 81.8335 62.1815 82.1668C61.0979 83.1668 59.6809 83.7501 58.2639 83.7501C56.7635 83.7501 55.2632 83.1668 54.1796 82.0001C52.0124 79.7502 52.0957 76.1669 54.3463 74.0002C54.4296 73.9169 62.7649 66.0003 67.0993 61.167C69.1831 58.917 70.1834 56.0004 70.0167 53.0004C69.85 49.8338 68.2663 46.8338 65.6823 44.5838C62.2648 41.6672 55.5132 41.0005 51.2622 44.7505C48.7616 47.0005 45.6775 50.3338 45.6775 50.3338C43.5937 52.6671 40.0095 52.7504 37.6756 50.6671C35.3417 48.5838 35.2584 45.0005 37.3422 42.6672C37.5089 42.5005 40.7597 38.9172 43.7604 36.3339C51.7623 29.1673 65.0155 29.0006 73.1007 36.0006C78.0186 40.2505 80.9359 46.0005 81.3527 52.2504C81.7695 58.417 79.6856 64.2503 75.518 68.7503Z" fill="white"/>
</svg>
