<svg width="471" height="90" viewBox="0 0 471 90" fill="none" xmlns="http://www.w3.org/2000/svg">
<path opacity="0.2" d="M110 59.7333C110 78.6088 121.634 89.9059 138.921 89.9059C147.54 89.9059 154.794 87.5052 158.845 81.1977V89.9059H174.624V0H158.232V38.2218C154.511 31.9142 147.635 29.09 139.015 29.09C122.152 29.0429 110 40.5753 110 59.7333ZM158.751 59.7333C158.751 70.5126 151.403 77.2437 142.595 77.2437C133.457 77.2437 126.439 70.5126 126.439 59.7333C126.439 48.7657 133.504 41.8933 142.595 41.8933C151.403 41.8933 158.751 48.8598 158.751 59.7333ZM225.635 66.6998C223.751 73.6663 218.994 77.1496 211.505 77.1496C202.791 77.1496 195.631 71.8776 195.443 62.5575H236.751C237.27 60.251 237.505 57.8033 237.505 55.1203C237.505 38.41 226.106 28.9958 209.291 28.9958C191.345 28.9958 179.004 41.7521 179.004 59.0743C179.004 78.3734 192.617 89.9529 211.458 89.9529C225.683 89.9529 235.338 84.022 239.578 72.2071L225.635 66.6998ZM195.443 51.637C196.997 44.9059 202.603 40.9519 209.338 40.9519C216.686 40.9519 221.679 44.9059 221.679 51.1192L221.585 51.637H195.443ZM286.444 66.6998C284.56 73.6663 279.803 77.1496 272.313 77.1496C263.6 77.1496 256.44 71.8776 256.252 62.5575H297.56C298.078 60.251 298.314 57.8033 298.314 55.1203C298.314 38.41 286.915 28.9958 270.1 28.9958C252.154 28.9958 239.813 41.7521 239.813 59.0743C239.813 78.3734 253.426 89.9529 272.266 89.9529C286.491 89.9529 296.147 84.022 300.386 72.2071L286.444 66.6998ZM256.252 51.637C257.806 44.9059 263.411 40.9519 270.147 40.9519C277.495 40.9519 282.488 44.9059 282.488 51.1192L282.393 51.637H256.252ZM356.155 90V75.1726H321.723L355.213 42.5994V29.0429H302.223V43.1642H334.582L301.187 75.8787V90H356.155ZM404.058 66.6998C402.174 73.6663 397.416 77.1496 389.927 77.1496C381.213 77.1496 374.054 71.8776 373.865 62.5575H415.174C415.692 60.251 415.927 57.8033 415.927 55.1203C415.927 38.41 404.529 28.9958 387.713 28.9958C369.768 28.9958 357.427 41.7521 357.427 59.0743C357.427 78.3734 371.039 89.9529 389.88 89.9529C404.105 89.9529 413.761 84.022 418 72.2071L404.058 66.6998ZM373.865 51.637C375.42 44.9059 381.025 40.9519 387.76 40.9519C395.108 40.9519 400.101 44.9059 400.101 51.1192L400.007 51.637H373.865Z" fill="white"/>
<path opacity="0.2" fill-rule="evenodd" clip-rule="evenodd" d="M73 29H93V41H73V29Z" fill="white"/>
<path opacity="0.2" fill-rule="evenodd" clip-rule="evenodd" d="M73 45H93V57H73V45Z" fill="white"/>
<path opacity="0.2" fill-rule="evenodd" clip-rule="evenodd" d="M73 62H93V74H73V62Z" fill="white"/>
<path opacity="0.2" fill-rule="evenodd" clip-rule="evenodd" d="M0 78H20V90H0V78Z" fill="white"/>
<path opacity="0.2" fill-rule="evenodd" clip-rule="evenodd" d="M24 78H44V90H24V78Z" fill="white"/>
<path opacity="0.2" fill-rule="evenodd" clip-rule="evenodd" d="M49 78H69V90H49V78Z" fill="white"/>
<path opacity="0.2" fill-rule="evenodd" clip-rule="evenodd" d="M73 78H93V90H73V78Z" fill="white"/>
<path opacity="0.2" fill-rule="evenodd" clip-rule="evenodd" d="M49 62H69V74H49V62Z" fill="white"/>
<path opacity="0.2" fill-rule="evenodd" clip-rule="evenodd" d="M24 62H44V74H24V62Z" fill="white"/>
<path opacity="0.2" fill-rule="evenodd" clip-rule="evenodd" d="M24 45H44V57H24V45Z" fill="white"/>
<path opacity="0.2" d="M454.92 49.9938V51.7394H471V47.0688C471 36.5955 464.407 29 453.354 29C446.239 29 441.211 32.4439 438.602 38.1524V29H422V90H438.602V50.7015C438.602 44.4741 441.97 41.0302 447.14 41.0302C451.884 41.0773 454.92 45.512 454.92 49.9938Z" fill="white"/>
</svg>
