<svg width="413" height="60" viewBox="0 0 413 60" fill="none" xmlns="http://www.w3.org/2000/svg">
<path d="M83.4238 9.36798C82.4486 5.68487 79.5594 2.78132 75.8887 1.78705C69.2467 -1.96888e-06 42.6 0 42.6 0C42.6 0 15.9664 -1.96888e-06 9.31126 1.78705C5.65045 2.76811 2.76449 5.67496 1.77623 9.36798C0 16.0504 0 30 0 30C0 30 0 43.9496 1.77623 50.632C2.75135 54.3151 5.6406 57.2187 9.31126 58.2129C15.9664 60 42.6 60 42.6 60C42.6 60 69.2467 60 75.8887 58.2129C79.5495 57.2319 82.4355 54.325 83.4238 50.632C85.2 43.9496 85.2 30 85.2 30C85.2 30 85.2 16.0504 83.4238 9.36798Z" fill="#FF0000"/>
<path d="M33.6 42L55.2 29.4L33.6 16.8V42Z" fill="white"/>
<path d="M124.567 54.721C122.92 53.59 121.74 51.8429 121.048 49.4603C120.357 47.0776 120 43.9159 120 39.959V34.5776C120 30.5815 120.399 27.3775 121.196 24.9557C121.994 22.5339 123.242 20.7705 124.927 19.6688C126.613 18.5639 128.832 18 131.579 18C134.287 18 136.451 18.5639 138.085 19.6949C139.719 20.826 140.912 22.5893 141.671 24.9818C142.427 27.3775 142.8 30.5782 142.8 34.5613V39.9427C142.8 43.8996 142.427 47.0744 141.697 49.4701C140.967 51.8658 139.77 53.6291 138.111 54.7308C136.464 55.8358 134.219 56.3997 131.392 56.3997C128.497 56.416 126.214 55.8521 124.567 54.721ZM133.82 48.9094C134.271 47.6969 134.512 45.7217 134.512 42.9903V31.4322C134.512 28.7692 134.287 26.8299 133.82 25.5913C133.37 24.3657 132.559 23.7464 131.405 23.7464C130.289 23.7464 129.507 24.3657 129.041 25.5913C128.591 26.8168 128.349 28.766 128.349 31.4322V42.9903C128.349 45.7347 128.562 47.7132 128.999 48.9094C129.436 50.1219 130.234 50.7249 131.389 50.7249C132.559 50.7249 133.357 50.1187 133.82 48.9094Z" fill="black"/>
<path d="M254.409 40.0557V41.929C254.409 44.3147 254.479 46.0934 254.63 47.2912C254.768 48.4759 255.073 49.3538 255.529 49.8923C255.986 50.4308 256.694 50.7147 257.65 50.7147C258.938 50.7147 259.824 50.2285 260.294 49.2592C260.764 48.2899 261.029 46.6711 261.069 44.4094L268.481 44.8271C268.522 45.1502 268.538 45.5941 268.538 46.162C268.538 49.5986 267.569 52.1573 265.643 53.8544C263.717 55.5515 260.989 56.4 257.455 56.4C253.217 56.4 250.251 55.1076 248.55 52.5195C246.846 49.9315 246 45.9433 246 40.5289V34.0473C246 28.4698 246.886 24.4131 248.644 21.8413C250.402 19.2826 253.422 18 257.704 18C260.653 18 262.911 18.5254 264.492 19.5763C266.072 20.6272 267.179 22.2591 267.83 24.4816C268.468 26.7041 268.8 29.7752 268.8 33.6851V40.0459H254.409V40.0557ZM255.503 24.4294C255.073 24.9548 254.781 25.8164 254.63 27.0011C254.479 28.1858 254.409 30.0069 254.409 32.4188V35.0852H260.697V32.4188C260.697 30.033 260.613 28.2283 260.448 27.0011C260.281 25.774 259.979 24.8993 259.549 24.4C259.12 23.9007 258.442 23.6461 257.526 23.6461C256.61 23.633 255.932 23.9039 255.503 24.4294Z" fill="black"/>
<path d="M104.395 39.677L94.8 4.81655H103.171L106.528 20.6119C107.384 24.5111 108.009 27.8206 108.417 30.5669H108.661C108.947 28.5991 109.573 25.3028 110.55 20.6649L114.029 4.79999H122.4L112.696 39.6737V56.4H104.395V39.677Z" fill="black"/>
<path d="M170.4 18V55.7821H163.819L163.086 51.1611H162.908C161.117 54.6592 158.431 56.4 154.861 56.4C152.38 56.4 150.545 55.5761 149.365 53.9317C148.185 52.2873 147.6 49.7226 147.6 46.2245V18H156.012V45.7427C156.012 47.4304 156.189 48.6363 156.554 49.3505C156.919 50.0648 157.531 50.4335 158.385 50.4335C159.118 50.4335 159.825 50.2143 160.489 49.7625C161.153 49.3107 161.656 48.7326 161.981 48.035V18H170.4Z" fill="black"/>
<path d="M213.6 18V55.7821H207.019L206.286 51.1611H206.108C204.317 54.6592 201.631 56.4 198.061 56.4C195.58 56.4 193.745 55.5761 192.565 53.9317C191.385 52.2873 190.8 49.7226 190.8 46.2245V18H199.212V45.7427C199.212 47.4304 199.389 48.6363 199.754 49.3505C200.119 50.0648 200.731 50.4335 201.585 50.4335C202.318 50.4335 203.025 50.2143 203.689 49.7625C204.353 49.3107 204.856 48.7326 205.181 48.035V18H213.6Z" fill="black"/>
<path d="M194.4 11.6278H185.959V56.4H177.641V11.6278H169.2V4.79999H194.387V11.6278H194.4Z" fill="black"/>
<path d="M242.835 24.2119C242.309 21.8347 241.478 20.1131 240.318 19.047C239.154 17.9809 237.562 17.4478 235.531 17.4478C233.952 17.4478 232.487 17.8849 231.115 18.7722C229.744 19.6462 228.695 20.8084 227.947 22.2453H227.877V2.40002H219.6V55.8537H226.687L227.559 52.2879H227.74C228.403 53.5593 229.399 54.5559 230.73 55.2942C232.057 56.0325 233.526 56.4 235.145 56.4C238.051 56.4 240.184 55.0757 241.551 52.4369C242.923 49.7982 243.6 45.6729 243.6 40.0543V34.0948C243.61 29.8834 243.348 26.5891 242.835 24.2119ZM234.961 39.5743C234.961 42.3223 234.85 44.4677 234.615 46.0271C234.394 47.5865 234.005 48.6924 233.465 49.3479C232.926 50.0035 232.205 50.3312 231.293 50.3312C230.586 50.3312 229.935 50.1657 229.329 49.8379C228.732 49.5101 228.236 49.0168 227.86 48.3613V26.9699C228.152 25.9435 228.648 25.1125 229.355 24.4536C230.063 23.7981 230.824 23.4703 231.652 23.4703C232.523 23.4703 233.201 23.8113 233.673 24.4801C234.143 25.1489 234.475 26.2978 234.669 27.8837C234.85 29.4828 234.947 31.7507 234.947 34.704V39.571L234.961 39.5743Z" fill="black"/>
<path d="M291.064 4.79999H279.6V56.3476H287.051V14.4826L295.266 56.3476H302.143L310.739 13.5294V56.4H318V4.79999H306.156L298.8 45.571L291.064 4.79999Z" fill="black"/>
<path d="M340.708 55.9155H346.8V18H338.544V47.9381C337.167 50.231 332.256 52.14 332.256 47.5576C332.256 42.9752 332.256 18.0033 332.256 18.0033H324C324 18.0033 324 42.2109 324 48.7057C324 55.2004 333.042 60.9309 339.33 51.1888L340.708 55.9155Z" fill="black"/>
<path d="M385.2 18H378V56.4H385.2V18Z" fill="black"/>
<path d="M381.6 14.4C378.959 14.4 376.8 12.2353 376.8 9.58836V8.41159C376.8 5.7647 378.959 3.59998 381.6 3.59998C384.241 3.59998 386.4 5.7647 386.4 8.41159V9.58836C386.397 12.2353 384.241 14.4 381.6 14.4Z" fill="black"/>
<path d="M365.849 30.845H372.486C372.68 27.657 372.875 18 362.531 18C353.943 18 351.6 23.4074 351.6 28.2375C351.6 33.0677 354.074 36.478 361.099 41.8887C367.086 44.9805 367.344 52.0632 362.4 52.0632C360.057 52.0632 358.626 50.5173 358.626 48.3278C358.626 46.1383 358.626 44.8512 358.626 44.8512H351.6C351.6 44.8512 351.6 47.8136 351.6 48.842C351.6 52.3187 353.943 57.6 362.139 57.6C370.337 57.6 373.2 53.0916 373.2 46.1383C373.2 39.185 358.368 32.3578 358.368 27.594C358.368 22.0572 365.752 22.6676 365.752 26.6916L365.849 30.845Z" fill="black"/>
<path d="M399.253 26.8003C398.486 35.6301 399.124 42.3794 399.381 46.6639C399.73 52.4968 405.771 52.5069 405.771 46.5334C405.771 42.5099 405.771 42.249 405.771 42.249H412.8C412.8 50.0386 410.117 56.4 402.574 56.4C393.755 56.4 391.2 50.0386 391.2 43.2858C391.2 36.5331 391.2 31.9911 391.2 31.9911C391.2 22.9039 395.035 16.8 402.318 16.8C412.03 16.8 412.286 23.8103 412.286 27.0579C412.286 30.3021 412.286 31.3423 412.286 31.3423L405.768 31.8607C405.768 31.8607 405.768 30.3021 405.768 26.6665C405.771 23.0343 401.297 19.7901 399.253 26.8003Z" fill="black"/>
</svg>
