<svg width="451" height="107" viewBox="0 0 451 107" fill="none" xmlns="http://www.w3.org/2000/svg">
<path opacity="0.2" fill-rule="evenodd" clip-rule="evenodd" d="M2.84855 2.76952C1.67469 4.03489 1 5.98246 1 8.51321V98.5307C1 101.061 1.67469 103.009 2.89244 104.23L3.21058 104.5L53.5 54.0611V52.9278L3.1667 2.49994L2.84855 2.76952Z" fill="white" stroke="black" stroke-width="2"/>
<path opacity="0.2" fill-rule="evenodd" clip-rule="evenodd" d="M70.5793 70.0001L53.5 53.3331V52.1671L70.5848 35.5001L70.9535 35.7235L91.1604 46.9257C96.9465 50.1076 96.9465 55.3491 91.1604 58.5746L70.9535 69.7767C70.9479 69.7767 70.5793 70.0001 70.5793 70.0001Z" fill="white" stroke="black" stroke-width="2"/>
<path opacity="0.2" fill-rule="evenodd" clip-rule="evenodd" d="M71.5 70.7333L54.0461 53.5L2.5 104.378C4.38283 106.375 7.55069 106.601 11.0929 104.649L71.5 70.7333Z" fill="white" stroke="black" stroke-width="2"/>
<path opacity="0.2" fill-rule="evenodd" clip-rule="evenodd" d="M71.5 36.2616L11.0929 2.3698C7.55628 0.372266 4.38283 0.64265 2.5 2.64018L54.0405 53.5L71.5 36.2616Z" fill="white" stroke="black" stroke-width="2"/>
<path opacity="0.2" fill-rule="evenodd" clip-rule="evenodd" d="M71.0866 69.9999L11.0929 104.008C7.74065 105.931 4.75158 105.797 2.82405 104.052L2.5 104.376L2.82405 104.649C4.75158 106.388 7.74065 106.527 11.0929 104.604L71.5 70.3678L71.0866 69.9999Z" fill="white" stroke="black" stroke-width="2"/>
<path opacity="0.2" fill-rule="evenodd" clip-rule="evenodd" d="M91.3806 58.5794L71.5 69.6515L71.8554 70L91.3376 59.1443C94.1269 57.5814 95.5 55.5434 95.5 53.5C95.3223 55.3691 93.9061 57.1485 91.3806 58.5794Z" fill="white"/>
<path opacity="0.2" fill-rule="evenodd" clip-rule="evenodd" d="M11.3752 2.97424L91.2227 48.1937C93.8178 49.6444 95.2731 51.5474 95.5 53.5C95.5 51.3709 94.089 49.2362 91.2227 47.6035L11.3752 2.38404C5.64255 -0.881383 1 1.83796 1 8.3688V8.95901C1 2.42816 5.64255 -0.247054 11.3752 2.97424Z" fill="white" stroke="black" stroke-width="2"/>
<path opacity="0.2" fill-rule="evenodd" clip-rule="evenodd" d="M115.011 51.1776C115.011 36.7483 127.232 25.0001 141.772 25.0001C149.81 25.0001 155.529 28.1326 159.845 32.212L154.764 37.2548C151.68 34.3811 147.497 32.1515 141.766 32.1515C131.149 32.1515 122.85 40.6351 122.85 51.1721C122.85 61.7092 131.149 70.2038 141.761 70.2038C148.645 70.2038 152.562 67.4622 155.075 64.9628C157.133 62.9204 158.481 59.986 159.002 55.9617H141.772V48.8269H166.025C166.28 50.1041 166.414 51.6346 166.414 53.2917C166.414 58.6483 164.932 65.2931 160.167 70.0221C155.529 74.8117 149.616 77.3662 141.766 77.3662C127.221 77.3662 115 65.6289 115 51.1886L115.011 51.1776ZM186.018 43.6464C176.626 43.6464 168.96 50.7372 168.96 60.498C168.96 70.2093 176.621 77.3496 186.018 77.3496C195.415 77.3496 203.065 70.1983 203.065 60.4925C203.065 50.7317 195.41 43.6409 186.018 43.6464ZM186.018 70.7213C180.876 70.7213 176.432 66.5098 176.432 60.5035C176.432 54.4367 180.87 50.2858 186.018 50.2858C191.161 50.2858 195.599 54.4312 195.599 60.5035C195.599 66.5043 191.166 70.7213 186.018 70.7213ZM223.214 43.6464C213.822 43.6464 206.166 50.7372 206.166 60.498C206.166 70.2093 213.822 77.3496 223.214 77.3496C232.605 77.3496 240.261 70.1983 240.261 60.4925C240.261 50.7317 232.611 43.6409 223.214 43.6464ZM223.214 70.7213C218.071 70.7213 213.628 66.5098 213.628 60.5035C213.628 54.4367 218.066 50.2858 223.214 50.2858C228.356 50.2858 232.8 54.4312 232.8 60.5035C232.8 66.5043 228.356 70.7213 223.214 70.7213ZM268.863 44.6704V47.412H268.608C266.938 45.4246 263.721 43.6409 259.671 43.6409C251.178 43.6409 243.384 51.051 243.384 60.5696C243.384 70.0111 251.173 77.3607 259.671 77.3607C263.721 77.3607 266.938 75.577 268.608 73.5345H268.863V75.9568C268.863 82.4035 265.391 85.8553 259.793 85.8553C255.222 85.8553 252.393 82.5962 251.234 79.86L244.732 82.5411C246.596 87.0059 251.555 92.5001 259.788 92.5001C268.531 92.5001 275.931 87.3857 275.931 74.9383V44.6649L268.863 44.6704ZM260.309 70.7213C255.167 70.7213 250.845 66.4382 250.845 60.5696C250.845 54.6349 255.161 50.2913 260.309 50.2913C265.391 50.2913 269.379 54.6294 269.379 60.5696C269.385 66.4382 265.396 70.7213 260.309 70.7213ZM281.084 26.7893H288.551V76.3367H281.084V26.7893ZM309.016 70.7213C305.221 70.7213 302.514 68.9927 300.789 65.6179L323.5 56.2865L322.718 54.3707C321.309 50.6106 316.993 43.6464 308.178 43.6464C299.43 43.6464 292.157 50.4785 292.157 60.5035C292.157 69.9451 299.363 77.3551 309.016 77.3551C316.804 77.3551 321.309 72.6371 323.173 69.8845L317.381 66.0583C315.445 68.8715 312.805 70.7268 309.016 70.7213ZM308.433 50.1592C311.39 50.1592 313.897 51.6291 314.735 53.7321L299.546 59.9916C299.358 53.4788 304.633 50.1592 308.433 50.1592Z" fill="white"/>
<path opacity="0.2" fill-rule="evenodd" clip-rule="evenodd" d="M354.893 26.5001H337V75.9928H344.467V57.246H354.898C363.177 57.246 371.317 51.3179 371.317 41.8703C371.317 32.4392 363.183 26.5056 354.909 26.5056L354.893 26.5001ZM355.087 50.3555H344.467V33.385H355.087C360.67 33.385 363.85 37.9659 363.85 41.8703C363.85 45.7087 360.67 50.3555 355.087 50.3555ZM382.899 75.9928V26.5001H375.432V75.9928H382.899ZM416.444 75.9048V56.9326C416.444 48.1449 409.805 43.2451 401.237 43.2451C395.838 43.2451 390.239 45.6042 387.92 50.823L394.548 53.5561C395.966 50.823 398.601 49.9266 401.376 49.9266C405.234 49.9266 409.16 52.2198 409.221 56.3002V56.8116C407.87 56.0472 404.979 54.8979 401.431 54.8979C394.286 54.8979 387.014 58.7803 387.014 66.0392C387.014 72.6658 392.874 76.9276 399.441 76.9276C404.467 76.9276 407.23 74.7005 408.965 72.0939H409.221V75.9158H416.438L416.444 75.9048ZM400.347 70.3726C397.9 70.3726 394.487 69.1628 394.487 66.1767C394.487 62.3548 398.74 60.881 402.41 60.881C405.696 60.881 407.236 61.5794 409.238 62.5363C408.665 66.9796 404.867 70.3176 400.347 70.3726ZM442.704 44.3284L434.142 65.7808H433.886L425.001 44.3284H416.955L430.277 74.321L422.677 91.0001H430.466L451 44.3284H442.704Z" fill="white"/>
</svg>
